<svg width="103" height="23" viewBox="0 0 103 23" fill="none" xmlns="http://www.w3.org/2000/svg">
<path d="M48.0393 3.54657L102.016 0.717792L103 19.5011L49.0237 22.3299L48.0393 3.54657Z" fill="white"/>
<path d="M0 2.66452L43.591 0.727922L51.3585 9.85577L44.5754 19.5112L0.984391 21.4478L0 2.66452Z" fill="#010101"/>
<path d="M11.2122 11.4297L13.1457 11.3284L13.3137 14.5326C12.8883 14.8725 12.3928 15.1422 11.8271 15.3417C11.2615 15.5413 10.6913 15.6561 10.1168 15.6862C9.30653 15.7287 8.56842 15.5975 7.90246 15.2926C7.2361 14.9804 6.70276 14.5282 6.30242 13.9361C5.90208 13.344 5.68164 12.6613 5.6411 11.8879C5.60057 11.1144 5.74843 10.4124 6.08469 9.7817C6.42095 9.15102 6.90799 8.64908 7.54581 8.27589C8.18324 7.89533 8.91445 7.68343 9.73944 7.6402C10.4613 7.60237 11.1159 7.68993 11.7032 7.9029C12.2905 8.11587 12.7876 8.44066 13.1946 8.87728L11.8684 10.2098C11.3153 9.66269 10.6741 9.40823 9.94489 9.44644C9.28195 9.48119 8.75854 9.71174 8.37464 10.1381C7.99035 10.5571 7.81578 11.1017 7.8509 11.7721C7.87329 12.1993 7.98544 12.5775 8.18735 12.9067C8.38887 13.2285 8.66039 13.4765 9.00189 13.6506C9.34302 13.8174 9.72719 13.8896 10.1544 13.8672C10.5743 13.8452 10.9639 13.7398 11.3233 13.5511L11.2122 11.4297Z" fill="white"/>
<path d="M20.5103 13.4796L17.2398 13.651L16.7108 15.1855L14.4789 15.3025L17.4877 7.38924L19.6423 7.27632L23.4728 14.8311L21.1967 14.9504L20.5103 13.4796ZM19.7849 11.9L18.6608 9.47715L17.7961 12.0042L19.7849 11.9Z" fill="white"/>
<path d="M31.7389 14.3979L31.502 10.2999L29.6881 13.7409L28.7157 13.7919L26.5689 10.6692L26.7779 14.6579L24.756 14.7639L24.3506 7.02957L26.1516 6.93518L29.1036 11.2565L31.5214 6.65376L33.3224 6.55938L33.7498 14.2925L31.7389 14.3979Z" fill="white"/>
<path d="M42.0817 12.1607L42.1703 13.8512L35.9608 14.1767L35.5554 6.44235L41.6213 6.12445L41.7099 7.81495L37.8096 8.01935L37.878 9.32313L41.3142 9.14305L41.3999 10.7783L37.9637 10.9584L38.0378 12.3727L42.0817 12.1607Z" fill="white"/>
<path d="M65.1071 10.459L62.7315 10.5834L62.6406 8.84875L69.5683 8.48569L69.6593 10.2204L67.2948 10.3443L67.6092 16.3439L65.4215 16.4586L65.1071 10.459Z" fill="#010101"/>
<path d="M76.0498 12.9101C76.0506 12.9249 76.0486 13.0985 76.0439 13.4312L71.6906 13.6593C71.7952 13.9641 71.9772 14.1946 72.2365 14.3509C72.5028 14.4994 72.8275 14.5636 73.2105 14.5436C73.4978 14.5285 73.7424 14.4751 73.9444 14.3832C74.1538 14.291 74.3604 14.1472 74.5644 13.9519L75.7295 15.0431C75.1816 15.7218 74.3478 16.0905 73.2282 16.1491C72.5284 16.1858 71.9064 16.0855 71.3621 15.8481C70.8179 15.6107 70.3861 15.264 70.0667 14.808C69.7548 14.3517 69.5831 13.8252 69.5519 13.2285C69.521 12.6392 69.6333 12.1052 69.8889 11.6265C70.1515 11.14 70.5263 10.7511 71.0133 10.4596C71.5003 10.1682 72.0568 10.0061 72.6829 9.97328C73.2796 9.94201 73.8275 10.0389 74.3268 10.2638C74.8257 10.4814 75.2275 10.8186 75.5321 11.2754C75.8437 11.7244 76.0163 12.2693 76.0498 12.9101ZM72.7721 11.4643C72.448 11.4813 72.1803 11.5877 71.969 11.7834C71.765 11.9787 71.6419 12.2363 71.5996 12.5562L74.0524 12.4276C73.9769 12.114 73.8238 11.8708 73.5932 11.6983C73.3699 11.5253 73.0962 11.4473 72.7721 11.4643Z" fill="#010101"/>
<path d="M83.1389 12.5386C83.1397 12.5533 83.1377 12.727 83.133 13.0596L78.7797 13.2878C78.8843 13.5925 79.0662 13.823 79.3256 13.9793C79.5919 14.1279 79.9165 14.1921 80.2996 14.172C80.5868 14.157 80.8315 14.1035 81.0335 14.0117C81.2428 13.9195 81.4495 13.7757 81.6535 13.5804L82.8186 14.6715C82.2706 15.3503 81.4369 15.7189 80.3172 15.7776C79.6175 15.8143 78.9954 15.7139 78.4512 15.4766C77.9069 15.2392 77.4751 14.8925 77.1558 14.4365C76.8438 13.9801 76.6722 13.4536 76.6409 12.857C76.61 12.2677 76.7224 11.7337 76.978 11.255C77.2406 10.7685 77.6153 10.3795 78.1023 10.0881C78.5893 9.79669 79.1459 9.63458 79.772 9.60176C80.3686 9.57049 80.9166 9.66734 81.4159 9.89231C81.9148 10.1099 82.3165 10.4471 82.6211 10.9038C82.9327 11.3528 83.1053 11.8978 83.1389 12.5386ZM79.8612 11.0928C79.5371 11.1098 79.2694 11.2161 79.058 11.4119C78.8541 11.6072 78.7309 11.8648 78.6886 12.1846L81.1415 12.0561C81.066 11.7424 80.9129 11.4993 80.6822 11.3268C80.459 11.1538 80.1853 11.0758 79.8612 11.0928Z" fill="#010101"/>
<path d="M87.8444 9.1787C88.5884 9.13972 89.1966 9.32943 89.6691 9.74784C90.1489 10.1659 90.4122 10.8205 90.4589 11.7118L90.6384 15.137L88.5391 15.247L88.3776 12.1643C88.3347 11.3467 87.9855 10.9551 87.3299 10.9894C86.969 11.0084 86.6842 11.1415 86.4756 11.3888C86.2743 11.6357 86.186 11.9948 86.2108 12.4663L86.3625 15.3611L84.2632 15.4711L83.9493 9.48255L85.9492 9.37774L85.9833 10.0296C86.2063 9.7742 86.4766 9.57538 86.7941 9.43318C87.1113 9.2836 87.4614 9.19878 87.8444 9.1787Z" fill="#010101"/>
<path d="M94.1383 15.0533C93.6374 15.0795 93.141 15.0502 92.6491 14.9651C92.1567 14.8728 91.7584 14.7422 91.4541 14.5735L92.0086 13.1041C92.2901 13.2593 92.6213 13.3786 93.0024 13.462C93.3831 13.5381 93.7576 13.5665 94.1259 13.5472C94.4647 13.5294 94.7024 13.4837 94.8388 13.4101C94.9823 13.3287 95.0505 13.2217 95.0436 13.0891C95.0366 12.9565 94.9434 12.8691 94.7639 12.8268C94.5914 12.7767 94.316 12.7358 93.9376 12.7039C93.4558 12.6701 93.0429 12.6142 92.699 12.5362C92.3625 12.4578 92.066 12.296 91.8094 12.051C91.5528 11.8059 91.4124 11.4513 91.3881 10.9873C91.368 10.6042 91.4644 10.2594 91.6773 9.95281C91.8898 9.63884 92.2089 9.38576 92.6346 9.19356C93.0673 8.99362 93.5894 8.87762 94.2008 8.84558C94.6354 8.82281 95.0686 8.84442 95.5004 8.91042C95.9323 8.97642 96.2961 9.08292 96.5919 9.22992L96.0368 10.6882C95.491 10.4214 94.9087 10.3042 94.29 10.3366C93.9585 10.354 93.7176 10.4072 93.5671 10.4964C93.4163 10.5781 93.3442 10.6816 93.3507 10.8069C93.3581 10.9468 93.448 11.0418 93.6205 11.0919C93.7926 11.1345 94.0754 11.1751 94.4689 11.2136C94.9663 11.2614 95.3795 11.3247 95.7087 11.4034C96.0378 11.4822 96.3269 11.6443 96.5762 11.8898C96.8324 12.1275 96.9724 12.4747 96.9964 12.9314C97.0161 13.307 96.9196 13.6519 96.7071 13.9658C96.4942 14.2724 96.1676 14.5222 95.7271 14.7152C95.294 14.9078 94.7644 15.0205 94.1383 15.0533Z" fill="#010101"/>
<path d="M55.6677 17.061C55.183 17.0864 54.7394 17.0088 54.337 16.8283C53.9398 16.6474 53.621 16.385 53.3806 16.0408C53.1402 15.6966 53.0084 15.3028 52.9852 14.8594C52.962 14.416 53.0519 14.0106 53.255 13.6432C53.458 13.2758 53.7476 12.9814 54.1238 12.76C54.5052 12.5384 54.9382 12.4149 55.4228 12.3895C55.9075 12.3641 56.3485 12.4418 56.7458 12.6226C57.1482 12.8032 57.4695 13.0655 57.7099 13.4097C57.9503 13.7538 58.0821 14.1476 58.1053 14.5911C58.1286 15.0345 58.0386 15.4399 57.8356 15.8073C57.6325 16.1747 57.3403 16.4692 56.959 16.6909C56.5828 16.9122 56.1524 17.0356 55.6677 17.061ZM55.6052 15.8699C55.9095 15.854 56.154 15.7352 56.3389 15.5135C56.5286 15.2864 56.6147 15.0053 56.5971 14.6701C56.5796 14.335 56.4647 14.067 56.2525 13.8661C56.0452 13.6598 55.7895 13.5646 55.4853 13.5806C55.1759 13.5968 54.9263 13.7184 54.7366 13.9455C54.5517 14.1672 54.4681 14.4456 54.4857 14.7808C54.5032 15.1159 54.6156 15.3866 54.8229 15.5929C55.0351 15.7938 55.2959 15.8861 55.6052 15.8699Z" fill="#FED61D"/>
<path d="M60.2632 13.3379L60.3065 14.1655L62.2169 14.0654L62.2745 15.1636L60.3641 15.2638L60.4399 16.7101L58.9472 16.7883L58.7129 12.3179L62.379 12.1258L62.4365 13.224L60.2632 13.3379Z" fill="#FED61D"/>
</svg>
