<svg width="22" height="22" viewBox="0 0 22 22" fill="none" xmlns="http://www.w3.org/2000/svg">
<path d="M20.3949 3.1915C19.3098 1.96027 17.8044 1.28223 16.1562 1.28223C13.8382 1.28223 12.3706 2.66668 11.5476 3.82813C11.3341 4.12951 11.1525 4.43171 11 4.71607C10.8475 4.43171 10.6659 4.12951 10.4524 3.82813C9.62943 2.66668 8.16183 1.28223 5.84375 1.28223C4.19555 1.28223 2.69023 1.96032 1.6051 3.19154C0.570066 4.36605 0 5.93905 0 7.62076C0 9.45136 0.714699 11.154 2.2492 12.979C3.62063 14.6101 5.59363 16.2913 7.87832 18.2382C8.72966 18.9637 9.61005 19.7139 10.5473 20.534L10.5755 20.5587C10.697 20.665 10.8485 20.7182 11 20.7182C11.1515 20.7182 11.303 20.665 11.4245 20.5587L11.4527 20.534C12.39 19.7139 13.2703 18.9637 14.1218 18.2381C16.4064 16.2914 18.3794 14.6101 19.7508 12.979C21.2853 11.154 22 9.45136 22 7.62076C22 5.93905 21.4299 4.36605 20.3949 3.1915ZM13.2856 17.2571C12.5517 17.8824 11.7964 18.5261 11 19.2184C10.2036 18.5261 9.44827 17.8825 8.71423 17.257C4.24295 13.4468 1.28906 10.9297 1.28906 7.62076C1.28906 6.25307 1.74475 4.98274 2.5722 4.04383C3.40914 3.09426 4.57097 2.57129 5.84375 2.57129C7.61101 2.57129 8.75342 3.66003 9.40053 4.57338C9.981 5.39253 10.2839 6.21831 10.3872 6.53529C10.4736 6.80062 10.721 6.98018 11 6.98018C11.279 6.98018 11.5264 6.80062 11.6128 6.53529C11.7161 6.21831 12.019 5.39253 12.5995 4.57333C13.2466 3.66003 14.389 2.57129 16.1562 2.57129C17.429 2.57129 18.5909 3.09426 19.4278 4.04383C20.2553 4.98274 20.7109 6.25307 20.7109 7.62076C20.7109 10.9297 17.757 13.4468 13.2856 17.2571Z" fill="white"/>
</svg>
