<svg width="558" height="318" viewBox="0 0 558 318" fill="none" xmlns="http://www.w3.org/2000/svg">
<path d="M192.358 112.56H22.9963V225.525H192.358V112.56Z" fill="white"/>
<path d="M192.358 225.525C192.358 225.525 192.358 224.851 192.358 223.503C192.358 222.155 192.358 220.133 192.358 217.572C192.358 212.315 192.358 204.631 192.358 194.79C192.358 175.109 192.223 146.935 192.223 112.56L192.493 112.83C145.824 112.83 86.9804 112.83 23.1316 112.83L23.4022 112.56C23.4022 152.866 23.4022 191.15 23.4022 225.525L23.1316 225.256C73.0473 225.256 115.252 225.39 145.148 225.39C160.028 225.39 171.932 225.39 180.048 225.525C184.106 225.525 187.217 225.525 189.382 225.525C190.464 225.525 191.276 225.525 191.817 225.525C192.087 225.525 192.358 225.525 192.358 225.525C192.358 225.525 192.087 225.525 191.546 225.525C191.005 225.525 190.193 225.525 189.247 225.525C187.082 225.525 184.106 225.525 180.048 225.525C171.932 225.525 160.163 225.525 145.283 225.66C115.388 225.66 73.0473 225.795 23.1316 225.795H22.8611V225.525C22.8611 191.016 22.8611 152.732 22.8611 112.56V112.291H22.9964C86.8451 112.291 145.689 112.291 192.358 112.291H192.628V112.56C192.628 147.07 192.493 175.244 192.493 194.925C192.493 204.766 192.493 212.449 192.493 217.572C192.493 220.133 192.493 222.155 192.493 223.503C192.358 224.851 192.358 225.525 192.358 225.525Z" fill="#E0E0E0"/>
<path d="M22.9963 122.671C22.9963 122.536 60.8727 122.401 107.677 122.401C154.481 122.401 192.358 122.536 192.358 122.671C192.358 122.805 154.481 122.94 107.677 122.94C60.8727 122.94 22.9963 122.805 22.9963 122.671Z" fill="#E0E0E0"/>
<g opacity="0.3">
<g opacity="0.3">
<path opacity="0.3" d="M29.6246 117.548C29.6246 118.357 29.0836 118.896 28.2719 118.896C27.4603 118.896 26.9192 118.357 26.9192 117.548C26.9192 116.739 27.4603 116.2 28.2719 116.2C29.0836 116.2 29.6246 116.874 29.6246 117.548Z" fill="#E0E0E0"/>
</g>
</g>
<g opacity="0.3">
<g opacity="0.3">
<path opacity="0.3" d="M32.8713 118.896C33.6184 118.896 34.224 118.293 34.224 117.548C34.224 116.804 33.6184 116.2 32.8713 116.2C32.1242 116.2 31.5186 116.804 31.5186 117.548C31.5186 118.293 32.1242 118.896 32.8713 118.896Z" fill="#E0E0E0"/>
</g>
</g>
<g opacity="0.3">
<g opacity="0.3">
<path opacity="0.3" d="M38.8231 117.548C38.8231 118.357 38.282 118.896 37.4704 118.896C36.6588 118.896 36.1177 118.357 36.1177 117.548C36.1177 116.739 36.6588 116.2 37.4704 116.2C38.282 116.2 38.8231 116.874 38.8231 117.548Z" fill="#E0E0E0"/>
</g>
</g>
<path d="M82.6515 134.398H37.4705V179.423H82.6515V134.398Z" fill="#E0E0E0"/>
<path d="M169.091 147.205C169.091 147.34 151.505 147.474 129.726 147.474C107.948 147.474 90.3621 147.34 90.3621 147.205C90.3621 147.07 107.948 146.935 129.726 146.935C151.505 146.8 169.091 146.935 169.091 147.205Z" fill="#E0E0E0"/>
<path d="M169.091 155.563C169.091 155.697 151.505 155.832 129.726 155.832C107.948 155.832 90.3621 155.697 90.3621 155.563C90.3621 155.428 107.948 155.293 129.726 155.293C151.505 155.293 169.091 155.428 169.091 155.563Z" fill="#E0E0E0"/>
<path d="M169.091 163.92C169.091 164.055 151.505 164.19 129.726 164.19C107.948 164.19 90.3621 164.055 90.3621 163.92C90.3621 163.785 107.948 163.651 129.726 163.651C151.505 163.651 169.091 163.785 169.091 163.92Z" fill="#E0E0E0"/>
<path d="M136.896 172.278C136.896 172.278 136.22 172.413 135.002 172.413C133.649 172.413 132.026 172.413 129.997 172.548C125.804 172.548 119.987 172.682 113.494 172.682C107.136 172.682 101.319 172.682 96.9905 172.548C94.9614 172.548 93.3381 172.413 91.9854 172.413C90.7679 172.413 90.0916 172.278 90.0916 172.278C90.0916 172.278 90.7679 172.143 91.9854 172.143C93.3381 172.143 94.9614 172.143 96.9905 172.008C101.184 172.008 107.001 171.874 113.494 171.874C119.852 171.874 125.668 171.874 129.997 172.008C132.026 172.008 133.649 172.143 135.002 172.143C136.22 172.143 136.896 172.278 136.896 172.278Z" fill="#E0E0E0"/>
<path d="M61.5491 194.655H40.3113V215.819H61.5491V194.655Z" fill="#E0E0E0"/>
<path d="M100.102 194.655H78.864V215.819H100.102V194.655Z" fill="#E0E0E0"/>
<path d="M138.655 194.655H117.417V215.819H138.655V194.655Z" fill="#E0E0E0"/>
<path d="M177.072 194.655H155.834V215.819H177.072V194.655Z" fill="#E0E0E0"/>
<path d="M501.05 141.139C501.05 141.139 500.915 141.947 500.103 143.026C499.291 144.104 497.803 145.722 495.504 146.396C494.286 146.8 492.934 146.935 491.446 146.666C489.958 146.396 488.47 145.722 487.252 144.644C486.576 144.104 486.035 143.43 485.629 142.756C485.088 142.082 484.817 141.273 484.547 140.33C484.006 138.577 484.141 136.69 484.817 134.803C485.494 133.051 486.711 131.568 488.334 130.624C489.146 130.085 489.958 129.815 490.769 129.546C491.581 129.276 492.393 129.141 493.339 129.276C494.963 129.276 496.586 129.815 497.803 130.624C499.021 131.433 499.968 132.376 500.644 133.455C501.997 135.612 501.997 137.769 501.862 139.117C501.321 140.465 501.05 141.139 501.05 141.139C501.05 141.139 501.321 140.465 501.456 139.117C501.591 137.769 501.456 135.747 500.238 133.725C499.562 132.781 498.75 131.702 497.533 131.028C496.315 130.354 494.827 129.815 493.339 129.815C492.528 129.815 491.716 129.95 490.905 130.085C490.093 130.354 489.281 130.624 488.605 131.163C487.117 132.107 486.035 133.455 485.358 135.207C484.682 136.96 484.682 138.712 485.088 140.33C485.358 141.139 485.629 141.948 486.035 142.622C486.441 143.296 486.982 143.97 487.658 144.374C488.875 145.452 490.228 145.992 491.581 146.261C492.934 146.531 494.286 146.396 495.504 146.126C497.803 145.452 499.291 143.97 500.103 143.026C500.644 141.813 500.915 141.139 501.05 141.139Z" fill="white"/>
<path d="M509.031 149.362C509.031 149.362 509.166 149.362 509.302 149.362C509.572 149.362 509.843 149.362 510.249 149.496C511.06 149.631 512.278 149.766 513.901 150.036H513.766C514.442 148.148 515.389 145.587 516.606 142.621V142.756C515.389 141.947 514.036 141.004 512.548 140.06H512.413V139.925C512.548 138.308 512.548 136.555 512.278 134.803V134.668H512.413C513.63 133.724 514.983 132.781 516.336 131.837V132.107C515.254 129.815 514.172 127.389 513.089 124.827L513.36 124.962C511.872 125.232 510.249 125.636 508.625 125.906H508.49L508.355 125.771C507.408 124.558 506.055 123.345 504.567 122.266L504.432 122.131V121.997C504.702 120.514 504.838 118.896 505.108 117.279L505.244 117.548C502.944 116.605 500.374 115.661 497.804 114.717L498.074 114.582C497.262 115.796 496.316 117.144 495.369 118.627L495.233 118.761H495.098C493.475 118.627 491.716 118.627 489.958 118.896H489.822L489.687 118.761C488.74 117.548 487.793 116.2 486.846 114.852L487.117 114.987C484.817 116.065 482.382 117.144 479.812 118.222L479.948 117.953C480.218 119.435 480.624 121.053 480.894 122.671V122.805L480.759 122.94C479.542 124.019 478.189 125.232 477.242 126.715C477.107 126.715 477.513 126.58 476.972 126.85H476.836H476.701H476.43L475.889 126.715L474.672 126.58C473.86 126.445 473.049 126.31 472.237 126.176L472.508 126.041C471.561 128.602 470.614 131.028 469.667 133.455L469.532 133.185C470.884 134.129 472.237 134.938 473.59 135.881L473.725 136.016V136.151C473.59 137.903 473.59 139.656 473.86 141.273V141.408L473.725 141.543C472.372 142.487 471.155 143.43 469.802 144.374L469.937 144.104C471.02 146.531 472.102 149.092 473.184 151.384L472.913 151.249C474.537 150.979 476.16 150.575 477.648 150.305H477.783L477.918 150.44C479.001 151.788 480.218 153.001 481.706 153.945L481.841 154.08V154.215C481.571 155.832 481.3 157.45 481.165 158.933L481.03 158.663C483.6 159.741 486.17 160.685 488.47 161.494L488.199 161.629C489.146 160.281 490.093 158.933 490.905 157.585V157.45H491.04C492.934 157.585 494.557 157.585 496.18 157.315H496.316V157.45C497.398 158.798 498.345 160.146 499.156 161.359H499.021C501.862 160.146 504.297 159.067 506.326 158.124V158.259C505.92 156.371 505.649 154.754 505.379 153.54C506.732 152.462 507.678 151.518 508.22 150.844C508.49 150.575 508.625 150.305 508.896 150.036C509.031 149.362 509.031 149.227 509.031 149.362C509.031 149.362 509.031 149.496 508.896 149.631C508.761 149.766 508.625 150.036 508.355 150.44C507.814 151.114 507.002 152.058 505.514 153.271V153.136C505.785 154.484 506.055 155.967 506.461 157.854V157.989H506.326C504.297 158.933 501.862 160.011 499.021 161.224H498.886L498.75 161.089C497.804 159.876 496.857 158.663 495.91 157.18H496.045C494.422 157.45 492.663 157.585 490.769 157.315L490.905 157.18C490.093 158.393 489.146 159.741 488.199 161.224L488.064 161.359H487.929C485.629 160.415 483.059 159.472 480.489 158.528H480.353V158.393C480.624 156.911 480.759 155.293 481.03 153.675L481.165 153.945C479.812 153.001 478.46 151.788 477.377 150.305L477.648 150.44C476.16 150.71 474.537 151.114 472.913 151.384H472.778L472.643 151.249C471.561 148.822 470.478 146.396 469.396 143.969L469.261 143.835L469.396 143.7C470.614 142.756 471.966 141.813 473.319 140.869L473.184 141.139C472.913 139.386 472.913 137.634 473.049 135.881L473.184 136.151C471.831 135.207 470.478 134.398 469.126 133.455L468.99 133.32L469.126 133.185C470.073 130.759 471.02 128.198 471.966 125.771L472.102 125.636H472.237C473.049 125.771 473.86 125.906 474.672 126.041L475.889 126.176L476.43 126.31H476.701H476.836H476.972C476.566 126.445 476.836 126.31 476.701 126.445C477.783 124.962 479.001 123.614 480.353 122.671L480.218 122.94C479.948 121.323 479.542 119.705 479.271 118.222V118.087L479.406 117.953C481.977 116.874 484.412 115.796 486.711 114.717L486.846 114.582L486.982 114.717C487.929 116.065 489.011 117.413 489.822 118.627L489.552 118.492C491.31 118.222 493.204 118.222 494.828 118.357L494.557 118.492C495.504 117.144 496.451 115.796 497.262 114.448L497.398 114.313H497.533C500.103 115.256 502.673 116.335 504.973 117.144H505.108V117.279C504.838 118.896 504.567 120.514 504.432 121.997L504.297 121.862C505.785 122.94 507.137 124.153 508.084 125.501L507.949 125.367C509.572 125.097 511.196 124.693 512.684 124.423H512.819V124.558C513.901 127.119 514.983 129.546 516.065 131.837V131.972L515.93 132.107C514.577 133.05 513.225 134.129 512.007 134.938V134.803C512.278 136.69 512.278 138.443 512.142 140.06V139.925C513.63 140.869 514.983 141.813 516.201 142.621H516.336V142.756C515.118 145.722 514.172 148.283 513.36 150.17C511.872 149.901 510.654 149.766 509.843 149.631C509.437 149.631 509.166 149.496 508.896 149.496C509.166 149.362 509.031 149.362 509.031 149.362Z" fill="white"/>
<path fill-rule="evenodd" clip-rule="evenodd" d="M551.642 126.58C550.83 127.793 549.748 128.872 548.666 129.68L549.478 133.59L543.39 136.286L540.956 133.051C539.603 133.32 538.115 133.32 536.627 133.185L534.327 136.555L528.105 134.129L528.646 130.22C527.428 129.411 526.346 128.332 525.534 127.254L521.612 128.063L518.906 121.997L522.153 119.57C521.882 118.222 521.882 116.739 522.017 115.257L518.635 112.965L521.07 106.764L524.993 107.303C525.805 106.09 526.887 105.012 527.969 104.203L527.158 100.293L533.245 97.5974L535.68 100.833C537.033 100.563 538.521 100.563 540.009 100.698L542.308 97.3278L548.531 99.7542L547.99 103.663C549.207 104.472 550.289 105.551 551.101 106.629L555.024 105.82L557.729 111.886L554.483 114.313C554.753 115.661 554.753 117.144 554.618 118.627L558 120.918L555.565 127.119L551.642 126.58ZM544.878 119.84C546.231 116.2 544.473 112.021 540.82 110.673C537.168 109.325 532.974 111.078 531.622 114.717C530.269 118.357 532.028 122.536 535.68 123.884C539.332 125.367 543.526 123.48 544.878 119.84Z" fill="white"/>
<path fill-rule="evenodd" clip-rule="evenodd" d="M525.535 89.7788C524.182 91.666 522.559 93.2836 520.8 94.6317L522.017 100.833L512.548 105.011L508.761 100.024C506.596 100.428 504.297 100.428 501.997 100.159L498.48 105.416L488.74 101.641L489.687 95.4405C487.793 94.0924 486.17 92.4748 484.817 90.7224L478.595 91.9356L474.401 82.4994L479.407 78.7249C479.001 76.5681 479.001 74.2764 479.271 71.9848L473.996 68.4799L477.783 58.7741L484.006 59.7177C485.359 57.8305 486.982 56.2128 488.74 54.8648L487.523 48.6639L496.992 44.485L500.78 49.4727C502.944 49.0683 505.244 49.0683 507.543 49.3379L511.06 44.0806L520.8 47.855L519.853 54.056C521.747 55.404 523.37 57.0216 524.723 58.7741L530.945 57.5609L535.139 66.9971L530.134 70.7715C530.54 72.9284 530.54 75.22 530.269 77.5117L535.545 81.0166L531.757 90.7224L525.535 89.7788ZM514.983 79.1293C517.148 73.3328 514.307 66.9971 508.625 64.7054C502.809 62.5486 496.451 65.3794 494.151 71.0411C491.987 76.8377 494.828 83.1734 500.509 85.4651C506.326 87.7567 512.684 84.9258 514.983 79.1293Z" fill="white"/>
<path d="M430.032 38.284C430.032 38.284 430.303 38.0144 430.708 37.4752C431.249 36.936 431.926 36.262 432.737 35.4531C434.496 33.7007 436.931 31.409 439.636 28.8478V29.2522C436.931 26.691 434.496 24.3993 432.737 22.7817C431.926 21.9728 431.249 21.2988 430.708 20.7596C430.167 20.2204 430.032 19.9508 430.032 19.9508C430.032 19.9508 430.303 20.2204 430.844 20.6248C431.385 21.164 432.196 21.838 433.008 22.5121C434.767 24.1297 437.337 26.4213 440.042 28.9826L440.177 29.1174L440.042 29.2522C437.337 31.8135 434.902 34.1051 433.008 35.8575C432.196 36.6664 431.385 37.3404 430.844 37.7448C430.303 38.1492 430.032 38.4188 430.032 38.284Z" fill="white"/>
<path d="M408.929 19.816C408.929 19.816 408.659 20.0856 408.253 20.6249C407.712 21.1641 407.036 21.8381 406.224 22.6469C404.465 24.3993 402.031 26.691 399.325 29.2522V28.8478C402.031 31.4091 404.465 33.7007 406.224 35.3184C407.036 36.1272 407.712 36.8012 408.253 37.3404C408.794 37.8796 408.929 38.1492 408.929 38.1492C408.929 38.1492 408.659 37.8796 408.118 37.4752C407.577 36.936 406.765 36.262 405.953 35.588C404.195 33.9703 401.625 31.6787 398.919 29.1174L398.784 28.9826L398.919 28.8478C401.625 26.2866 404.06 23.9949 405.953 22.2425C406.765 21.4337 407.577 20.7597 408.118 20.3553C408.524 19.9508 408.794 19.816 408.929 19.816Z" fill="white"/>
<path d="M414.34 42.7325C414.205 42.7325 416.369 36.5316 419.345 28.8478C422.186 21.2988 424.621 15.0979 424.756 15.0979C424.892 15.0979 422.727 21.2988 419.751 28.9826C416.775 36.6664 414.476 42.7325 414.34 42.7325Z" fill="white"/>
<path d="M453.975 55.9432C453.975 55.9432 453.975 55.5388 453.975 54.8648C453.975 54.1908 453.975 53.1123 453.975 51.8991C453.975 49.3379 453.975 45.4286 453.975 40.5757C453.975 30.8699 453.975 16.9852 453.84 0.134803L453.975 0.269606C434.361 0.269606 410.688 0.269606 385.257 0.269606L385.527 0C385.527 20.2204 385.527 39.2276 385.527 55.8084L385.257 55.5388C405.683 55.5388 422.727 55.6736 434.902 55.6736C440.989 55.6736 445.724 55.6736 448.97 55.6736C450.593 55.6736 451.811 55.6736 452.758 55.6736C453.164 55.6736 453.434 55.6736 453.705 55.6736C453.84 55.9432 453.975 55.9432 453.975 55.9432C453.975 55.9432 453.84 55.9432 453.705 55.9432C453.434 55.9432 453.164 55.9432 452.758 55.9432C451.946 55.9432 450.729 55.9432 449.105 55.9432C445.859 55.9432 441.124 55.9432 435.037 55.9432C422.998 55.9432 405.818 55.9432 385.257 56.078H384.986V55.8084C384.986 39.2276 384.986 20.2204 384.986 0H385.257C410.688 0 434.225 0 453.975 0H454.11V0.134803C454.11 16.9852 453.975 30.8699 453.975 40.7105C453.975 45.5634 453.975 49.3379 453.975 52.0339C453.975 53.3819 453.975 54.3256 453.975 54.9996C453.975 55.6736 453.975 55.9432 453.975 55.9432Z" fill="white"/>
<path d="M454.516 8.49263C454.516 8.62743 438.96 8.76223 419.886 8.76223C400.813 8.76223 385.257 8.62743 385.257 8.49263C385.257 8.35783 400.813 8.22302 419.886 8.22302C438.96 8.22302 454.516 8.35783 454.516 8.49263Z" fill="white"/>
<path d="M390.938 4.4485C390.938 4.98772 390.532 5.39212 389.991 5.39212C389.45 5.39212 389.044 4.98772 389.044 4.4485C389.044 3.90929 389.45 3.50488 389.991 3.50488C390.532 3.50488 390.938 3.90929 390.938 4.4485Z" fill="white"/>
<path d="M393.373 5.39212C393.896 5.39212 394.32 4.96965 394.32 4.4485C394.32 3.92736 393.896 3.50488 393.373 3.50488C392.85 3.50488 392.426 3.92736 392.426 4.4485C392.426 4.96965 392.85 5.39212 393.373 5.39212Z" fill="white"/>
<path d="M397.702 4.4485C397.702 4.98772 397.296 5.39212 396.755 5.39212C396.214 5.39212 395.808 4.98772 395.808 4.4485C395.808 3.90929 396.214 3.50488 396.755 3.50488C397.296 3.50488 397.702 3.90929 397.702 4.4485Z" fill="white"/>
<path d="M321.273 27.0955H162.462V91.3964H321.273V27.0955Z" fill="white"/>
<path d="M321.273 91.3964C321.273 91.3964 321.273 90.992 321.273 90.1832C321.273 89.3744 321.273 88.296 321.273 86.8131C321.273 83.8475 321.273 79.5338 321.273 74.0069C321.273 62.953 321.273 46.9115 321.137 26.9606L321.273 27.0955C280.826 27.0955 224.688 27.0955 162.462 27.2303L162.733 26.9606C162.733 49.4727 162.733 71.176 162.733 91.2616L162.462 90.992C208.455 90.992 248.09 91.1268 276.362 91.1268C290.43 91.1268 301.658 91.1268 309.369 91.1268C313.156 91.1268 316.132 91.1268 318.161 91.1268C319.108 91.1268 319.92 91.1268 320.461 91.1268C321.002 91.3964 321.273 91.3964 321.273 91.3964C321.273 91.3964 321.002 91.3964 320.461 91.3964C319.92 91.3964 319.244 91.3964 318.161 91.3964C316.132 91.3964 313.156 91.3964 309.369 91.3964C301.658 91.3964 290.43 91.3964 276.362 91.3964C248.09 91.3964 208.455 91.5312 162.327 91.5312H162.057V91.2616C162.057 71.176 162.057 49.4727 162.057 26.9606V26.691H162.327C224.417 26.691 280.691 26.691 321.137 26.8258H321.273V26.9606C321.273 46.9115 321.137 62.953 321.137 74.0069C321.137 79.5338 321.137 83.8475 321.137 86.8131C321.137 88.296 321.137 89.3744 321.137 90.1832C321.273 90.992 321.273 91.3964 321.273 91.3964Z" fill="#E0E0E0"/>
<path d="M162.598 35.8576C162.598 35.7228 198.039 35.588 241.867 35.588C285.696 35.588 321.137 35.7228 321.137 35.8576C321.137 35.9924 285.696 36.1272 241.867 36.1272C198.039 35.9924 162.598 35.9924 162.598 35.8576Z" fill="#E0E0E0"/>
<g opacity="0.3">
<g opacity="0.3">
<path opacity="0.3" d="M169.226 31.9483C169.226 32.6223 168.685 33.1616 168.009 33.1616C167.332 33.1616 166.791 32.6223 166.791 31.9483C166.791 31.2743 167.332 30.7351 168.009 30.7351C168.685 30.7351 169.226 31.2743 169.226 31.9483Z" fill="#EBEBEB"/>
</g>
</g>
<g opacity="0.3">
<g opacity="0.3">
<path opacity="0.3" d="M173.149 31.9483C173.149 32.6223 172.608 33.1616 171.932 33.1616C171.255 33.1616 170.714 32.6223 170.714 31.9483C170.714 31.2743 171.255 30.7351 171.932 30.7351C172.608 30.7351 173.149 31.2743 173.149 31.9483Z" fill="#EBEBEB"/>
</g>
</g>
<g opacity="0.3">
<g opacity="0.3">
<path opacity="0.3" d="M175.99 33.1616C176.662 33.1616 177.207 32.6184 177.207 31.9483C177.207 31.2783 176.662 30.7351 175.99 30.7351C175.318 30.7351 174.772 31.2783 174.772 31.9483C174.772 32.6184 175.318 33.1616 175.99 33.1616Z" fill="#EBEBEB"/>
</g>
</g>
<path d="M214.407 46.2374H175.99V84.5214H214.407V46.2374Z" fill="#E0E0E0"/>
<path d="M310.18 56.4825C310.18 56.6173 290.43 56.7521 266.081 56.7521C241.732 56.7521 221.982 56.6173 221.982 56.4825C221.982 56.3477 241.732 56.2129 266.081 56.2129C290.43 56.2129 310.18 56.3477 310.18 56.4825Z" fill="#E0E0E0"/>
<path d="M310.18 64.3011C310.18 64.4359 290.43 64.5707 266.081 64.5707C241.732 64.5707 221.982 64.4359 221.982 64.3011C221.982 64.1663 241.732 64.0315 266.081 64.0315C290.43 64.0315 310.18 64.1663 310.18 64.3011Z" fill="#E0E0E0"/>
<path d="M278.797 72.1197C278.797 72.1197 278.662 72.1197 278.256 72.1197C277.85 72.1197 277.309 72.1197 276.633 72.1197C275.145 72.1197 273.115 72.1197 270.545 72.2545C265.405 72.2545 258.235 72.2545 250.525 72.3893C242.679 72.3893 235.645 72.3893 230.505 72.2545C227.934 72.2545 225.905 72.2545 224.417 72.1197C223.741 72.1197 223.2 72.1197 222.794 72.1197C222.388 72.1197 222.253 72.1197 222.253 72.1197C222.253 72.1197 222.388 72.1197 222.794 72.1197C223.2 72.1197 223.741 72.1197 224.417 72.1197C225.905 72.1197 227.934 72.1197 230.505 71.9849C235.645 71.9849 242.814 71.9849 250.525 71.8501C258.371 71.8501 265.405 71.8501 270.545 71.9849C273.115 71.9849 275.145 71.9849 276.633 72.1197C277.309 72.1197 277.85 72.1197 278.256 72.1197C278.662 71.9849 278.797 71.9849 278.797 72.1197Z" fill="#E0E0E0"/>
<path d="M518.635 138.173H329.118V292.118H518.635V138.173Z" fill="#E0E0E0"/>
<path d="M505.108 148.014H315.591V301.959H505.108V148.014Z" fill="#EBEBEB"/>
<path d="M491.716 158.663H297.059V316.652H491.716V158.663Z" fill="white"/>
<path d="M491.716 316.652C491.716 316.652 491.716 315.708 491.716 313.686C491.716 311.799 491.716 308.968 491.716 305.194C491.716 297.779 491.716 286.995 491.581 273.245C491.581 245.611 491.446 206.248 491.446 158.663L491.716 158.933C435.984 158.933 369.159 158.933 297.059 158.933L297.465 158.528C297.465 215.685 297.465 269.606 297.465 316.517L297.194 316.248C355.091 316.248 403.654 316.382 437.878 316.382C454.922 316.382 468.449 316.382 477.648 316.517C482.247 316.517 485.764 316.517 488.199 316.517C489.417 316.517 490.228 316.517 490.905 316.517C491.311 316.652 491.716 316.652 491.716 316.652C491.716 316.652 491.446 316.652 490.769 316.652C490.093 316.652 489.281 316.652 488.064 316.652C485.629 316.652 482.112 316.652 477.648 316.652C468.449 316.652 455.057 316.652 437.878 316.787C403.654 316.787 354.956 316.922 297.059 316.922H296.788V316.652C296.788 269.741 296.788 215.819 296.788 158.663V158.259H297.194C369.159 158.259 436.119 158.259 491.852 158.259H492.122V158.528C492.122 206.248 491.987 245.746 491.987 273.38C491.987 287.13 491.987 297.914 491.852 305.328C491.852 308.968 491.852 311.799 491.852 313.686C491.716 315.708 491.716 316.652 491.716 316.652Z" fill="#263238"/>
<path d="M320.732 181.445L318.703 182.254L320.732 183.062V183.871L317.756 182.793V181.984L320.732 180.906V181.445Z" fill="#FB6D3A"/>
<path d="M325.737 180.097V184.41H324.654V182.658H322.625V184.41H321.543V180.097H322.625V181.849H324.654V180.097H325.737Z" fill="#FB6D3A"/>
<path d="M327.631 180.905H326.278V180.097H330.065V180.905H328.713V184.41H327.631V180.905Z" fill="#FB6D3A"/>
<path d="M334.529 184.41V181.849L333.177 184.006H332.771L331.418 181.849V184.41H330.471V180.097H331.283L332.906 182.793L334.529 180.097H335.341V184.41H334.529Z" fill="#FB6D3A"/>
<path d="M336.559 180.097H337.641V183.602H339.805V184.41H336.559V180.097Z" fill="#FB6D3A"/>
<path d="M343.187 181.849V182.658L340.211 183.736V182.927L342.24 182.119L340.211 181.31V180.501L343.187 181.849Z" fill="#FB6D3A"/>
<path d="M318.973 301.111C318.973 301.216 318.909 301.31 318.812 301.349L318.541 301.457C317.966 301.686 317.966 302.501 318.541 302.73L318.731 302.806C318.877 302.864 318.973 303.005 318.973 303.163C318.973 303.429 318.708 303.615 318.458 303.524L316.377 302.77C316.149 302.688 315.997 302.471 315.997 302.228C315.997 301.985 316.149 301.769 316.377 301.686L318.63 300.87C318.797 300.809 318.973 300.933 318.973 301.111Z" fill="#FB6D3A"/>
<path d="M321.184 299.253C321.237 299.097 321.383 298.993 321.547 298.993C321.811 298.993 321.996 299.252 321.911 299.501L320.144 304.665C320.091 304.82 319.945 304.924 319.781 304.924C319.517 304.924 319.332 304.665 319.418 304.416L321.184 299.253Z" fill="#FB6D3A"/>
<path d="M325.872 299.937C326.171 299.937 326.413 300.179 326.413 300.478V303.709C326.413 304.008 326.171 304.25 325.872 304.25C325.573 304.25 325.331 304.008 325.331 303.709V303.374C325.331 302.89 324.939 302.498 324.455 302.498H324.178C323.694 302.498 323.302 302.89 323.302 303.374V303.709C323.302 304.008 323.06 304.25 322.761 304.25C322.462 304.25 322.22 304.008 322.22 303.709V300.478C322.22 300.179 322.462 299.937 322.761 299.937C323.06 299.937 323.302 300.179 323.302 300.478V300.813C323.302 301.297 323.694 301.689 324.178 301.689H324.455C324.939 301.689 325.331 301.297 325.331 300.813V300.478C325.331 300.179 325.573 299.937 325.872 299.937Z" fill="#FB6D3A"/>
<path d="M328.307 301.422C328.307 301.048 328.004 300.745 327.63 300.745H327.359C327.135 300.745 326.954 300.564 326.954 300.341C326.954 300.118 327.135 299.937 327.359 299.937H330.337C330.561 299.937 330.742 300.118 330.742 300.341C330.742 300.564 330.561 300.745 330.337 300.745H330.065C329.692 300.745 329.389 301.048 329.389 301.422V303.709C329.389 304.008 329.147 304.25 328.848 304.25C328.549 304.25 328.307 304.008 328.307 303.709V301.422Z" fill="#FB6D3A"/>
<path d="M335.747 304.25C335.523 304.25 335.341 304.069 335.341 303.844V303.678C335.341 303.104 334.589 302.887 334.284 303.374L334.096 303.674C334.029 303.781 333.912 303.846 333.786 303.846C333.659 303.846 333.542 303.781 333.475 303.674L333.287 303.374C332.982 302.887 332.23 303.104 332.23 303.678V303.777C332.23 304.038 332.018 304.25 331.756 304.25C331.495 304.25 331.283 304.038 331.283 303.777V300.455C331.283 300.169 331.515 299.937 331.802 299.937C331.983 299.937 332.152 300.032 332.246 300.188L332.507 300.621C333.056 301.534 334.379 301.534 334.929 300.621L335.19 300.188C335.284 300.032 335.452 299.937 335.634 299.937C335.921 299.937 336.153 300.169 336.153 300.455V303.844C336.153 304.069 335.971 304.25 335.747 304.25Z" fill="#FB6D3A"/>
<path d="M337.235 300.478C337.235 300.179 337.477 299.937 337.776 299.937C338.075 299.937 338.317 300.179 338.317 300.478V302.359C338.317 302.957 338.802 303.441 339.399 303.441H340.077C340.3 303.441 340.481 303.622 340.481 303.846C340.481 304.069 340.3 304.25 340.077 304.25H338.858C337.962 304.25 337.235 303.523 337.235 302.627V300.478Z" fill="#FB6D3A"/>
<path d="M343.51 301.529C343.725 301.627 343.863 301.841 343.863 302.077C343.863 302.329 343.705 302.555 343.467 302.641L341.403 303.39C341.152 303.48 340.887 303.295 340.887 303.028C340.887 302.871 340.983 302.729 341.129 302.671L341.319 302.595C341.894 302.366 341.894 301.551 341.319 301.322L341.116 301.241C340.978 301.186 340.887 301.052 340.887 300.904C340.887 300.64 341.16 300.464 341.4 300.573L343.51 301.529Z" fill="#FB6D3A"/>
<path d="M334.529 193.442L332.365 194.251L334.529 195.06V195.599L331.689 194.521V194.116L334.529 193.038V193.442Z" fill="black"/>
<path d="M339.399 192.094V196.408H338.723V194.521H336.153V196.408H335.476V192.094H336.153V193.981H338.723V192.094H339.399Z" fill="black"/>
<path d="M343.863 196.003V196.543H340.617V192.229H343.728V192.768H341.293V194.116H343.457V194.655H341.293V196.003H343.863Z" fill="black"/>
<path d="M347.651 195.464H345.351L344.81 196.543H344.134L346.163 192.229H346.839L348.868 196.543H348.192L347.651 195.464ZM347.516 194.925L346.569 192.768L345.622 194.925H347.516Z" fill="black"/>
<path d="M349.545 192.094H351.438C352.791 192.094 353.873 193.038 353.873 194.251C353.873 195.599 352.926 196.408 351.438 196.408H349.545V192.094ZM351.303 196.004C352.385 196.004 353.062 195.33 353.062 194.386C353.062 193.442 352.385 192.768 351.303 192.768H350.086V196.004H351.303Z" fill="black"/>
<path d="M357.255 194.116V194.655L354.415 195.734V195.195L356.714 194.386L354.415 193.577V193.038L357.255 194.116Z" fill="black"/>
<path d="M334.529 208.405L332.365 209.214L334.529 210.023V210.562L331.689 209.484V208.945L334.529 207.866V208.405Z" fill="black"/>
<path d="M336.423 207.731H334.935V207.192H338.588V207.731H337.1V211.506H336.423V207.731Z" fill="black"/>
<path d="M339.264 207.192H339.94V211.506H339.264V207.192Z" fill="black"/>
<path d="M342.105 207.731H340.617V207.192H344.269V207.731H342.781V211.506H342.105V207.731Z" fill="black"/>
<path d="M344.946 207.192H345.622V210.967H348.057V211.506H344.946V207.192Z" fill="black"/>
<path d="M351.844 210.967V211.506H348.598V207.192H351.709V207.731H349.274V209.079H351.439V209.619H349.274V210.967H351.844Z" fill="black"/>
<path d="M355.361 209.079V209.619L352.521 210.697V210.158L354.82 209.349L352.521 208.54V208.001L355.361 209.079Z" fill="black"/>
<path d="M358.202 207.192H358.879V210.967H361.313V211.506H358.337V207.192H358.202Z" fill="black"/>
<path d="M361.449 209.888C361.449 208.945 362.125 208.136 363.207 208.136C364.154 208.136 364.966 208.81 364.966 209.888C364.966 210.832 364.289 211.641 363.207 211.641C362.125 211.506 361.449 210.832 361.449 209.888ZM364.289 209.888C364.289 209.214 363.748 208.675 363.207 208.675C362.531 208.675 362.125 209.079 362.125 209.888C362.125 210.562 362.666 211.101 363.207 211.101C363.884 210.967 364.289 210.562 364.289 209.888Z" fill="black"/>
<path d="M367.536 208.136V208.675H367.401C366.724 208.675 366.318 209.079 366.318 209.753V211.371H365.777V208.001H366.318V208.54C366.589 208.405 366.995 208.136 367.536 208.136Z" fill="black"/>
<path d="M371.188 210.023H368.483C368.618 210.562 369.024 210.967 369.7 210.967C370.106 210.967 370.377 210.832 370.647 210.562L370.918 210.967C370.647 211.371 370.106 211.506 369.565 211.506C368.483 211.506 367.807 210.832 367.807 209.753C367.807 208.81 368.483 208.001 369.43 208.001C370.377 208.001 371.053 208.675 371.053 209.753C371.188 209.888 371.188 210.023 371.188 210.023ZM368.483 209.619H370.647C370.647 209.079 370.106 208.675 369.565 208.675C369.024 208.675 368.618 209.079 368.483 209.619Z" fill="black"/>
<path d="M377.546 209.619V211.506H377.005V209.619C377.005 208.945 376.734 208.675 376.193 208.675C375.652 208.675 375.246 209.079 375.246 209.753V211.506H374.705V209.619C374.705 208.945 374.435 208.675 373.894 208.675C373.353 208.675 372.947 209.079 372.947 209.753V211.506H372.406V208.136H372.947V208.675C373.217 208.271 373.623 208.136 374.029 208.136C374.57 208.136 374.976 208.271 375.246 208.81C375.517 208.405 375.923 208.136 376.464 208.136C377.005 208.136 377.546 208.675 377.546 209.619Z" fill="black"/>
<path d="M380.252 207.192C380.252 206.922 380.387 206.788 380.657 206.788C380.928 206.788 381.063 206.922 381.063 207.192C381.063 207.462 380.928 207.596 380.657 207.596C380.522 207.596 380.252 207.327 380.252 207.192ZM380.387 208.136H380.928V211.506H380.387V208.136Z" fill="black"/>
<path d="M385.527 209.888C385.527 210.967 384.851 211.641 383.904 211.641C383.498 211.641 382.957 211.506 382.687 211.101V212.854H382.146V208.271H382.687V208.81C382.957 208.405 383.363 208.271 383.904 208.271C384.851 208.136 385.527 208.81 385.527 209.888ZM384.986 209.888C384.986 209.214 384.445 208.675 383.904 208.675C383.228 208.675 382.822 209.079 382.822 209.888C382.822 210.562 383.363 211.101 383.904 211.101C384.445 210.967 384.986 210.562 384.986 209.888Z" fill="black"/>
<path d="M385.933 211.101L386.204 210.562C386.474 210.697 386.88 210.967 387.421 210.967C387.962 210.967 388.233 210.832 388.233 210.562C388.233 209.753 386.068 210.427 386.068 209.079C386.068 208.54 386.609 208.136 387.421 208.136C387.827 208.136 388.368 208.271 388.639 208.405L388.368 208.945C388.098 208.81 387.692 208.675 387.421 208.675C386.88 208.675 386.609 208.81 386.609 209.079C386.609 209.888 388.774 209.214 388.774 210.562C388.774 211.101 388.233 211.506 387.286 211.506C386.88 211.506 386.204 211.371 385.933 211.101Z" fill="black"/>
<path d="M392.697 208.136V211.506H392.156V210.967C391.885 211.371 391.479 211.506 391.073 211.506C390.262 211.506 389.585 211.101 389.585 210.023V208.136H390.127V210.023C390.127 210.697 390.397 210.967 391.073 210.967C391.75 210.967 392.156 210.562 392.156 209.888V208.136H392.697Z" fill="black"/>
<path d="M399.325 209.619V211.506H398.784V209.619C398.784 208.945 398.514 208.675 397.973 208.675C397.431 208.675 397.026 209.079 397.026 209.753V211.506H396.484V209.619C396.484 208.945 396.214 208.675 395.673 208.675C395.132 208.675 394.726 209.079 394.726 209.753V211.506H394.185V208.136H394.726V208.675C394.996 208.271 395.402 208.136 395.808 208.136C396.349 208.136 396.755 208.271 397.026 208.81C397.296 208.405 397.702 208.136 398.243 208.136C398.784 208.136 399.325 208.675 399.325 209.619Z" fill="black"/>
<path d="M404.736 208.405L402.572 209.214L404.736 210.023V210.562L401.895 209.484V208.945L404.736 207.866V208.405Z" fill="black"/>
<path d="M407.036 206.249H407.577L405.548 212.18H405.007L407.036 206.249Z" fill="black"/>
<path d="M409.065 207.731H407.577V207.192H411.229V207.731H409.741V211.506H409.065V207.731Z" fill="black"/>
<path d="M411.906 207.192H412.582V211.506H411.906V207.192Z" fill="black"/>
<path d="M414.746 207.731H413.258V207.192H416.911V207.731H415.423V211.506H414.746V207.731Z" fill="black"/>
<path d="M417.587 207.192H418.263V210.967H420.698V211.506H417.722V207.192H417.587Z" fill="black"/>
<path d="M424.486 210.967V211.506H421.239V207.192H424.351V207.731H421.916V209.079H424.08V209.619H421.916V210.967H424.486Z" fill="black"/>
<path d="M428.003 209.079V209.619L425.162 210.697V210.158L427.462 209.349L425.162 208.54V208.001L428.003 209.079Z" fill="black"/>
<path d="M334.529 223.503L332.365 224.312L334.529 225.121V225.66L331.689 224.582V224.043L334.529 222.964V223.503Z" fill="black"/>
<path d="M336.829 221.212H337.37L335.341 227.143H334.8L336.829 221.212Z" fill="black"/>
<path d="M341.564 222.155V226.469H340.887V224.582H338.317V226.469H337.641V222.155H338.317V224.043H340.887V222.155H341.564Z" fill="black"/>
<path d="M346.163 225.93V226.469H342.917V222.155H346.028V222.694H343.593V224.043H345.757V224.582H343.593V225.93H346.163Z" fill="black"/>
<path d="M349.951 225.391H347.651L347.11 226.469H346.434L348.463 222.155H349.139L351.168 226.469H350.357L349.951 225.391ZM349.68 224.851L348.733 222.694L347.786 224.851H349.68Z" fill="black"/>
<path d="M351.709 222.155H353.603C354.956 222.155 356.038 223.099 356.038 224.312C356.038 225.66 355.091 226.469 353.603 226.469H351.709V222.155ZM353.468 225.93C354.55 225.93 355.226 225.256 355.226 224.312C355.226 223.368 354.55 222.694 353.468 222.694H352.25V225.93H353.468Z" fill="black"/>
<path d="M359.42 224.043V224.582L356.579 225.66V225.121L358.878 224.312L356.579 223.503V222.964L359.42 224.043Z" fill="black"/>
<path d="M322.896 236.444L320.732 237.253L322.896 238.062V238.601L320.055 237.523V236.983L322.896 235.905V236.444Z" fill="black"/>
<path d="M327.766 238.331C327.766 239.14 327.225 239.545 326.142 239.545H324.113V235.231H326.142C327.089 235.231 327.766 235.635 327.766 236.309C327.766 236.849 327.495 237.118 327.225 237.253C327.36 237.388 327.766 237.792 327.766 238.331ZM324.654 235.635V236.983H326.007C326.683 236.983 326.954 236.714 326.954 236.309C326.954 235.905 326.548 235.635 326.007 235.635H324.654ZM327.089 238.331C327.089 237.792 326.683 237.657 326.007 237.657H324.654V239.14H326.142C326.683 239.005 327.089 238.736 327.089 238.331Z" fill="black"/>
<path d="M328.307 237.388C328.307 236.04 329.254 235.096 330.607 235.096C331.959 235.096 332.906 236.04 332.906 237.388C332.906 238.736 331.959 239.68 330.607 239.68C329.389 239.545 328.307 238.601 328.307 237.388ZM332.365 237.388C332.365 236.444 331.689 235.77 330.607 235.77C329.66 235.77 328.848 236.444 328.848 237.388C328.848 238.331 329.524 239.005 330.607 239.005C331.689 239.005 332.365 238.331 332.365 237.388Z" fill="black"/>
<path d="M333.988 235.096H335.882C337.235 235.096 338.317 236.04 338.317 237.253C338.317 238.601 337.37 239.41 335.882 239.41H333.988V235.096ZM335.747 239.005C336.829 239.005 337.505 238.331 337.505 237.388C337.505 236.444 336.829 235.77 335.747 235.77H334.529V239.005H335.747Z" fill="black"/>
<path d="M340.617 238.062V239.545H339.94V238.062L338.182 235.231H338.858L340.211 237.523L341.563 235.231H342.24L340.617 238.062Z" fill="black"/>
<path d="M345.622 237.118V237.657L342.781 238.736V238.197L345.081 237.388L342.781 236.579V235.905L345.622 237.118Z" fill="black"/>
<path d="M322.896 251.407L320.732 252.216L322.896 253.025V253.564L320.055 252.486V252.081L322.896 251.003V251.407Z" fill="black"/>
<path d="M327.766 250.194V254.508H327.089V252.621H324.654V254.508H323.978V250.194H324.654V252.081H327.225V250.194H327.766Z" fill="black"/>
<path d="M330.065 250.194V254.508H329.389V250.733H328.442V250.194H330.065Z" fill="black"/>
<path d="M333.988 252.081V252.621L331.147 253.699V253.16L333.447 252.351L331.147 251.542V251.003L333.988 252.081Z" fill="black"/>
<path d="M336.694 250.194H337.1V254.238H339.535V254.643H336.559V250.194H336.694Z" fill="black"/>
<path d="M339.94 252.89C339.94 251.946 340.617 251.272 341.563 251.272C342.51 251.272 343.187 251.946 343.187 252.89C343.187 253.834 342.51 254.508 341.563 254.508C340.752 254.508 339.94 253.834 339.94 252.89ZM342.916 252.89C342.916 252.081 342.375 251.542 341.699 251.542C341.022 251.542 340.481 252.081 340.481 252.89C340.481 253.699 341.022 254.238 341.699 254.238C342.375 254.103 342.916 253.564 342.916 252.89Z" fill="black"/>
<path d="M345.892 251.138V251.542H345.757C345.081 251.542 344.675 251.947 344.675 252.755V254.373H344.269V251.138H344.675V251.812C344.81 251.407 345.351 251.138 345.892 251.138Z" fill="black"/>
<path d="M349.545 253.025H346.839C346.839 253.699 347.38 254.103 348.192 254.103C348.598 254.103 349.004 253.969 349.139 253.699L349.409 253.969C349.139 254.373 348.598 254.508 348.192 254.508C347.11 254.508 346.433 253.834 346.433 252.89C346.433 251.946 347.11 251.272 348.057 251.272C349.004 251.272 349.68 251.946 349.68 252.89C349.545 252.89 349.545 252.89 349.545 253.025ZM346.839 252.62H349.139C349.139 251.946 348.598 251.542 347.921 251.542C347.245 251.542 346.839 252.081 346.839 252.62Z" fill="black"/>
<path d="M355.903 252.621V254.508H355.497V252.621C355.497 251.947 355.091 251.542 354.55 251.542C353.873 251.542 353.468 251.947 353.468 252.755V254.508H353.062V252.621C353.062 251.947 352.656 251.542 352.115 251.542C351.439 251.542 351.033 251.947 351.033 252.755V254.508H350.627V251.272H351.033V251.812C351.303 251.407 351.709 251.138 352.25 251.138C352.791 251.138 353.197 251.407 353.468 251.812C353.738 251.407 354.144 251.138 354.82 251.138C355.361 251.138 355.903 251.677 355.903 252.621Z" fill="black"/>
<path d="M358.608 250.194C358.608 250.059 358.743 249.925 358.878 249.925C359.014 249.925 359.149 250.059 359.149 250.194C359.149 250.329 359.014 250.464 358.878 250.464C358.743 250.464 358.608 250.329 358.608 250.194ZM358.743 251.273H359.149V254.508H358.743V251.273Z" fill="black"/>
<path d="M363.748 252.89C363.748 253.834 363.072 254.508 362.125 254.508C361.584 254.508 361.178 254.238 360.908 253.834V255.721H360.502V251.272H360.908V251.946C361.178 251.542 361.584 251.272 362.125 251.272C363.072 251.138 363.748 251.812 363.748 252.89ZM363.342 252.89C363.342 252.081 362.801 251.542 362.125 251.542C361.449 251.542 360.908 252.081 360.908 252.89C360.908 253.699 361.449 254.238 362.125 254.238C362.801 254.103 363.342 253.564 363.342 252.89Z" fill="black"/>
<path d="M364.289 254.103L364.425 253.699C364.695 253.969 365.101 254.103 365.642 254.103C366.318 254.103 366.589 253.834 366.589 253.564C366.589 252.755 364.425 253.429 364.425 252.081C364.425 251.542 364.83 251.138 365.777 251.138C366.183 251.138 366.724 251.272 366.995 251.407L366.86 251.812C366.589 251.677 366.183 251.542 365.913 251.542C365.372 251.542 365.101 251.812 365.101 252.081C365.101 253.025 367.265 252.351 367.265 253.564C367.265 254.103 366.724 254.508 365.913 254.508C364.966 254.508 364.56 254.373 364.289 254.103Z" fill="black"/>
<path d="M370.782 251.272V254.508H370.377V253.969C370.106 254.373 369.7 254.643 369.159 254.643C368.347 254.643 367.806 254.238 367.806 253.295V251.407H368.212V253.295C368.212 253.969 368.618 254.373 369.159 254.373C369.835 254.373 370.241 253.969 370.241 253.16V251.407H370.782V251.272Z" fill="black"/>
<path d="M377.411 252.621V254.508H377.005V252.621C377.005 251.947 376.599 251.542 376.058 251.542C375.382 251.542 374.976 251.947 374.976 252.755V254.508H374.57V252.621C374.57 251.947 374.164 251.542 373.623 251.542C372.947 251.542 372.541 251.947 372.541 252.755V254.508H372V251.272H372.406V251.812C372.676 251.407 373.082 251.138 373.623 251.138C374.164 251.138 374.57 251.407 374.841 251.812C375.111 251.407 375.517 251.138 376.193 251.138C376.87 251.138 377.411 251.677 377.411 252.621Z" fill="black"/>
<path d="M383.228 249.925V254.508H382.822V253.834C382.551 254.238 382.145 254.508 381.604 254.508C380.657 254.508 379.981 253.834 379.981 252.89C379.981 251.947 380.657 251.273 381.604 251.273C382.145 251.273 382.551 251.542 382.822 251.947V249.925H383.228ZM382.822 252.89C382.822 252.081 382.281 251.542 381.604 251.542C380.928 251.542 380.387 252.081 380.387 252.89C380.387 253.699 380.928 254.238 381.604 254.238C382.281 254.103 382.822 253.564 382.822 252.89Z" fill="black"/>
<path d="M384.175 252.89C384.175 251.946 384.851 251.272 385.798 251.272C386.745 251.272 387.421 251.946 387.421 252.89C387.421 253.834 386.745 254.508 385.798 254.508C384.851 254.508 384.175 253.834 384.175 252.89ZM387.151 252.89C387.151 252.081 386.609 251.542 385.933 251.542C385.257 251.542 384.716 252.081 384.716 252.89C384.716 253.699 385.257 254.238 385.933 254.238C386.609 254.103 387.151 253.564 387.151 252.89Z" fill="black"/>
<path d="M388.503 249.925H388.909V254.508H388.503V249.925Z" fill="black"/>
<path d="M389.856 252.89C389.856 251.946 390.532 251.272 391.479 251.272C392.426 251.272 393.103 251.946 393.103 252.89C393.103 253.834 392.426 254.508 391.479 254.508C390.532 254.508 389.856 253.834 389.856 252.89ZM392.697 252.89C392.697 252.081 392.156 251.542 391.479 251.542C390.803 251.542 390.262 252.081 390.262 252.89C390.262 253.699 390.803 254.238 391.479 254.238C392.156 254.103 392.697 253.564 392.697 252.89Z" fill="black"/>
<path d="M395.673 251.138V251.542H395.537C394.861 251.542 394.455 251.947 394.455 252.755V254.373H394.049V251.138H394.455V251.812C394.726 251.407 395.132 251.138 395.673 251.138Z" fill="black"/>
<path d="M397.702 254.103L397.837 253.699C398.107 253.969 398.513 254.103 399.054 254.103C399.731 254.103 400.001 253.834 400.001 253.564C400.001 252.755 397.837 253.429 397.837 252.081C397.837 251.542 398.243 251.138 399.19 251.138C399.595 251.138 400.137 251.272 400.407 251.407L400.272 251.812C400.001 251.677 399.595 251.542 399.325 251.542C398.784 251.542 398.513 251.812 398.513 252.081C398.513 253.025 400.678 252.351 400.678 253.564C400.678 254.103 400.137 254.508 399.325 254.508C398.513 254.508 397.972 254.373 397.702 254.103Z" fill="black"/>
<path d="M401.219 250.194C401.219 250.059 401.354 249.925 401.489 249.925C401.625 249.925 401.76 250.059 401.76 250.194C401.76 250.329 401.625 250.464 401.489 250.464C401.354 250.464 401.219 250.329 401.219 250.194ZM401.219 251.273H401.625V254.508H401.219V251.273Z" fill="black"/>
<path d="M404.736 254.373C404.601 254.508 404.33 254.643 404.06 254.643C403.383 254.643 403.113 254.238 403.113 253.699V251.677H402.572V251.273H403.113V250.599H403.518V251.273H404.465V251.677H403.518V253.699C403.518 254.104 403.654 254.238 404.06 254.238C404.195 254.238 404.465 254.238 404.601 254.104L404.736 254.373Z" fill="black"/>
<path d="M409.606 252.486V254.508H409.2V253.969C409.065 254.373 408.659 254.508 408.118 254.508C407.306 254.508 406.9 254.103 406.9 253.564C406.9 253.025 407.171 252.621 408.118 252.621H409.2V252.486C409.2 251.947 408.929 251.677 408.253 251.677C407.847 251.677 407.441 251.812 407.171 252.081L407.036 251.812C407.306 251.542 407.847 251.407 408.388 251.407C409.2 251.138 409.606 251.677 409.606 252.486ZM409.2 253.564V253.025H408.118C407.442 253.025 407.306 253.295 407.306 253.564C407.306 253.969 407.577 254.238 408.118 254.238C408.659 254.238 409.065 253.969 409.2 253.564Z" fill="black"/>
<path d="M416.234 252.621V254.508H415.828V252.621C415.828 251.947 415.423 251.542 414.881 251.542C414.205 251.542 413.799 251.947 413.799 252.755V254.508H413.393V252.621C413.393 251.947 412.988 251.542 412.447 251.542C411.77 251.542 411.364 251.947 411.364 252.755V254.508H410.958V251.272H411.364V251.812C411.635 251.407 412.041 251.138 412.582 251.138C413.123 251.138 413.529 251.407 413.799 251.812C414.07 251.407 414.476 251.138 415.152 251.138C415.828 251.138 416.234 251.677 416.234 252.621Z" fill="black"/>
<path d="M420.428 253.025H417.722C417.722 253.699 418.263 254.103 419.075 254.103C419.481 254.103 419.887 253.969 420.022 253.699L420.292 253.969C420.022 254.373 419.481 254.508 419.075 254.508C417.993 254.508 417.316 253.834 417.316 252.89C417.316 251.946 417.993 251.272 418.94 251.272C419.887 251.272 420.563 251.946 420.563 252.89C420.428 252.89 420.428 252.89 420.428 253.025ZM417.587 252.62H419.887C419.887 251.946 419.346 251.542 418.669 251.542C418.128 251.542 417.722 252.081 417.587 252.62Z" fill="black"/>
<path d="M422.998 254.373C422.863 254.508 422.592 254.643 422.322 254.643C421.645 254.643 421.375 254.238 421.375 253.699V251.677H420.833V251.273H421.375V250.599H421.78V251.273H422.727V251.677H421.78V253.699C421.78 254.104 421.916 254.238 422.322 254.238C422.457 254.238 422.727 254.238 422.863 254.104L422.998 254.373Z" fill="black"/>
<path d="M424.35 254.238C424.35 254.373 424.35 254.373 424.215 254.643L423.945 255.451H423.674L423.945 254.508C423.809 254.508 423.674 254.373 423.674 254.238C423.674 254.103 423.809 253.834 423.945 253.834C424.215 253.834 424.35 253.969 424.35 254.238Z" fill="black"/>
<path d="M426.515 252.89C426.515 251.946 427.191 251.272 428.273 251.272C428.815 251.272 429.356 251.542 429.626 251.946L429.356 252.216C429.085 251.946 428.815 251.677 428.409 251.677C427.732 251.677 427.191 252.216 427.191 253.025C427.191 253.834 427.732 254.373 428.409 254.373C428.815 254.373 429.085 254.238 429.356 253.834L429.626 254.103C429.356 254.508 428.95 254.777 428.273 254.777C427.327 254.508 426.515 253.834 426.515 252.89Z" fill="black"/>
<path d="M430.032 252.89C430.032 251.946 430.708 251.272 431.655 251.272C432.602 251.272 433.279 251.946 433.279 252.89C433.279 253.834 432.602 254.508 431.655 254.508C430.708 254.508 430.032 253.834 430.032 252.89ZM432.873 252.89C432.873 252.081 432.332 251.542 431.655 251.542C430.979 251.542 430.438 252.081 430.438 252.89C430.438 253.699 430.979 254.238 431.655 254.238C432.467 254.103 432.873 253.564 432.873 252.89Z" fill="black"/>
<path d="M437.337 252.62V254.508H436.931V252.62C436.931 251.946 436.525 251.542 435.984 251.542C435.308 251.542 434.766 251.946 434.766 252.755V254.508H434.225V251.272H434.631V251.946C434.902 251.542 435.308 251.272 435.849 251.272C436.796 251.138 437.337 251.677 437.337 252.62Z" fill="black"/>
<path d="M438.013 254.103L438.148 253.699C438.419 253.969 438.825 254.103 439.366 254.103C440.042 254.103 440.313 253.834 440.313 253.564C440.313 252.755 438.148 253.429 438.148 252.081C438.148 251.542 438.554 251.138 439.501 251.138C439.907 251.138 440.448 251.272 440.718 251.407L440.583 251.812C440.313 251.677 439.907 251.542 439.636 251.542C439.095 251.542 438.825 251.812 438.825 252.081C438.825 253.025 440.989 252.351 440.989 253.564C440.989 254.103 440.448 254.508 439.636 254.508C438.825 254.508 438.283 254.373 438.013 254.103Z" fill="black"/>
<path d="M444.506 253.025H441.801C441.801 253.699 442.342 254.103 443.153 254.103C443.559 254.103 443.965 253.969 444.1 253.699L444.371 253.969C444.1 254.373 443.559 254.508 443.153 254.508C442.071 254.508 441.395 253.834 441.395 252.89C441.395 251.946 442.071 251.272 443.018 251.272C443.965 251.272 444.641 251.946 444.641 252.89C444.506 252.89 444.506 252.89 444.506 253.025ZM441.665 252.62H443.965C443.965 251.946 443.424 251.542 442.748 251.542C442.206 251.542 441.801 252.081 441.665 252.62Z" fill="black"/>
<path d="M445.047 252.89C445.047 251.946 445.723 251.272 446.806 251.272C447.347 251.272 447.888 251.542 448.158 251.946L447.753 252.081C447.482 251.812 447.211 251.542 446.806 251.542C446.129 251.542 445.588 252.081 445.588 252.89C445.588 253.699 446.129 254.238 446.806 254.238C447.211 254.238 447.482 254.103 447.753 253.699L448.023 253.969C447.753 254.373 447.347 254.643 446.67 254.643C445.724 254.508 445.047 253.834 445.047 252.89Z" fill="black"/>
<path d="M450.729 254.373C450.593 254.508 450.323 254.643 450.052 254.643C449.376 254.643 449.105 254.238 449.105 253.699V251.677H448.564V251.273H449.105V250.599H449.511V251.273H450.458V251.677H449.511V253.699C449.511 254.104 449.646 254.238 450.052 254.238C450.188 254.238 450.458 254.238 450.593 254.104L450.729 254.373Z" fill="black"/>
<path d="M454.246 253.025H451.54C451.54 253.699 452.081 254.103 452.893 254.103C453.299 254.103 453.705 253.969 453.84 253.699L454.111 253.969C453.84 254.373 453.299 254.508 452.893 254.508C451.811 254.508 451.135 253.834 451.135 252.89C451.135 251.946 451.811 251.272 452.758 251.272C453.705 251.272 454.381 251.946 454.381 252.89C454.246 252.89 454.246 252.89 454.246 253.025ZM451.54 252.62H453.84C453.84 251.946 453.299 251.542 452.623 251.542C451.946 251.542 451.54 252.081 451.54 252.62Z" fill="black"/>
<path d="M456.951 254.373C456.816 254.508 456.545 254.643 456.275 254.643C455.598 254.643 455.328 254.238 455.328 253.699V251.677H454.787V251.273H455.328V250.599H455.734V251.273H456.681V251.677H455.734V253.699C455.734 254.104 455.869 254.238 456.275 254.238C456.41 254.238 456.681 254.238 456.816 254.104L456.951 254.373Z" fill="black"/>
<path d="M460.739 251.272V254.508H460.333V253.969C460.063 254.373 459.657 254.643 459.116 254.643C458.304 254.643 457.763 254.238 457.763 253.295V251.407H458.169V253.295C458.169 253.969 458.575 254.373 459.116 254.373C459.792 254.373 460.198 253.969 460.198 253.16V251.407H460.739V251.272Z" fill="black"/>
<path d="M464.797 253.025H462.092C462.092 253.699 462.633 254.103 463.444 254.103C463.85 254.103 464.256 253.969 464.391 253.699L464.662 253.969C464.391 254.373 463.85 254.508 463.444 254.508C462.362 254.508 461.686 253.834 461.686 252.89C461.686 251.946 462.362 251.272 463.309 251.272C464.256 251.272 464.932 251.946 464.932 252.89C464.797 252.89 464.797 252.89 464.797 253.025ZM462.092 252.62H464.391C464.391 251.946 463.85 251.542 463.174 251.542C462.497 251.542 462.092 252.081 462.092 252.62Z" fill="black"/>
<path d="M467.367 251.138V251.542H467.232C466.556 251.542 466.15 251.947 466.15 252.755V254.373H465.744V251.138H466.15V251.812C466.285 251.407 466.826 251.138 467.367 251.138Z" fill="black"/>
<path d="M322.761 259.9V261.922H322.355V261.517C322.22 261.922 321.814 262.057 321.273 262.057C320.461 262.057 320.055 261.652 320.055 261.113C320.055 260.574 320.326 260.169 321.273 260.169H322.355V260.035C322.355 259.495 322.084 259.226 321.408 259.226C321.002 259.226 320.596 259.361 320.326 259.63L320.19 259.361C320.461 259.091 321.002 258.956 321.543 258.956C322.22 258.687 322.761 259.091 322.761 259.9ZM322.355 260.978V260.439H321.273C320.596 260.439 320.461 260.709 320.461 260.978C320.461 261.383 320.732 261.652 321.273 261.652C321.814 261.652 322.084 261.383 322.355 260.978Z" fill="black"/>
<path d="M326.954 257.339V261.922H326.548V261.248C326.278 261.652 325.872 261.922 325.331 261.922C324.384 261.922 323.708 261.248 323.708 260.304C323.708 259.361 324.384 258.687 325.331 258.687C325.872 258.687 326.278 258.956 326.548 259.361V257.339H326.954ZM326.548 260.304C326.548 259.495 326.007 258.956 325.331 258.956C324.654 258.956 324.113 259.495 324.113 260.304C324.113 261.113 324.654 261.652 325.331 261.652C326.007 261.652 326.548 261.113 326.548 260.304Z" fill="black"/>
<path d="M328.172 257.608C328.172 257.473 328.307 257.339 328.442 257.339C328.577 257.339 328.713 257.473 328.713 257.608C328.713 257.743 328.577 257.878 328.442 257.878C328.307 258.013 328.172 257.878 328.172 257.608ZM328.172 258.687H328.577V261.922H328.172V258.687Z" fill="black"/>
<path d="M333.312 260.304C333.312 261.248 332.636 261.922 331.689 261.922C331.148 261.922 330.742 261.652 330.471 261.248V263.135H330.065V258.687H330.471V259.361C330.742 258.956 331.148 258.687 331.689 258.687C332.5 258.687 333.312 259.361 333.312 260.304ZM332.771 260.304C332.771 259.496 332.23 258.956 331.553 258.956C330.877 258.956 330.336 259.496 330.336 260.304C330.336 261.113 330.877 261.652 331.553 261.652C332.23 261.652 332.771 261.113 332.771 260.304Z" fill="black"/>
<path d="M334.124 257.608C334.124 257.473 334.259 257.339 334.394 257.339C334.529 257.339 334.665 257.473 334.665 257.608C334.665 257.743 334.529 257.878 334.394 257.878C334.259 258.013 334.124 257.878 334.124 257.608ZM334.124 258.687H334.529V261.922H334.124V258.687Z" fill="black"/>
<path d="M335.341 261.652L335.476 261.248C335.747 261.518 336.153 261.652 336.694 261.652C337.37 261.652 337.641 261.383 337.641 261.113C337.641 260.304 335.476 260.978 335.476 259.63C335.476 259.091 335.882 258.687 336.829 258.687C337.235 258.687 337.776 258.822 338.047 258.956L337.911 259.361C337.641 259.226 337.235 259.091 336.964 259.091C336.423 259.091 336.153 259.361 336.153 259.63C336.153 260.574 338.317 259.9 338.317 261.113C338.317 261.652 337.776 262.057 336.964 262.057C336.153 262.057 335.612 261.922 335.341 261.652Z" fill="black"/>
<path d="M338.588 260.304C338.588 259.361 339.264 258.687 340.346 258.687C340.887 258.687 341.428 258.956 341.699 259.361L341.428 259.63C341.158 259.361 340.887 259.091 340.481 259.091C339.805 259.091 339.264 259.63 339.264 260.439C339.264 261.248 339.805 261.787 340.481 261.787C340.887 261.787 341.158 261.652 341.428 261.248L341.699 261.518C341.428 261.922 341.023 262.192 340.346 262.192C339.264 262.057 338.588 261.383 338.588 260.304Z" fill="black"/>
<path d="M342.375 257.608C342.375 257.473 342.511 257.339 342.646 257.339C342.781 257.339 342.916 257.473 342.916 257.608C342.916 257.743 342.781 257.878 342.646 257.878C342.511 258.013 342.375 257.878 342.375 257.608ZM342.511 258.687H342.916V261.922H342.511V258.687Z" fill="black"/>
<path d="M347.11 260.035V261.922H346.704V260.169C346.704 259.495 346.298 259.091 345.757 259.091C345.081 259.091 344.54 259.495 344.54 260.304V262.057H344.134V258.821H344.54V259.495C344.81 259.091 345.216 258.821 345.757 258.821C346.569 258.687 347.11 259.091 347.11 260.035Z" fill="black"/>
<path d="M351.438 258.687V261.517C351.438 262.596 350.897 263.135 349.815 263.135C349.274 263.135 348.598 263 348.327 262.596L348.598 262.191C348.868 262.461 349.409 262.596 349.95 262.596C350.762 262.596 351.168 262.191 351.168 261.383V260.978C350.897 261.383 350.356 261.652 349.815 261.652C348.868 261.652 348.192 260.978 348.192 260.035C348.192 259.091 348.868 258.417 349.815 258.417C350.356 258.417 350.897 258.687 351.168 259.091V258.417H351.438V258.687ZM351.033 260.304C351.033 259.63 350.492 259.091 349.815 259.091C349.139 259.091 348.598 259.63 348.598 260.304C348.598 260.978 349.139 261.517 349.815 261.517C350.492 261.517 351.033 260.978 351.033 260.304Z" fill="black"/>
<path d="M357.255 260.439H354.55C354.55 261.113 355.091 261.518 355.903 261.518C356.308 261.518 356.714 261.383 356.85 261.113L357.12 261.383C356.85 261.787 356.308 261.922 355.903 261.922C354.82 261.922 354.144 261.248 354.144 260.304C354.144 259.361 354.82 258.687 355.767 258.687C356.714 258.687 357.391 259.361 357.391 260.304C357.255 260.439 357.255 260.439 357.255 260.439ZM354.415 260.17H356.714C356.714 259.496 356.173 259.091 355.497 259.091C354.956 259.091 354.55 259.496 354.415 260.17Z" fill="black"/>
<path d="M358.067 257.339H358.473V261.922H358.067V257.339Z" fill="black"/>
<path d="M359.69 257.608C359.69 257.473 359.825 257.339 359.961 257.339C360.096 257.339 360.231 257.473 360.231 257.608C360.231 257.743 360.096 257.878 359.961 257.878C359.825 258.013 359.69 257.878 359.69 257.608ZM359.825 258.687H360.231V261.922H359.825V258.687Z" fill="black"/>
<path d="M363.207 261.787C363.072 261.922 362.801 262.057 362.531 262.057C361.855 262.057 361.584 261.652 361.584 261.113V259.091H361.043V258.687H361.584V258.013H361.99V258.687H362.937V259.091H361.99V261.113C361.99 261.518 362.125 261.652 362.531 261.652C362.666 261.652 362.937 261.652 363.072 261.518L363.207 261.787Z" fill="black"/>
<path d="M364.425 261.652C364.425 261.787 364.425 261.787 364.289 262.057L364.019 262.866H363.884L364.154 261.922C364.019 261.922 363.884 261.787 363.884 261.652C363.884 261.518 364.019 261.248 364.154 261.248C364.289 261.383 364.425 261.518 364.425 261.652Z" fill="black"/>
<path d="M366.589 261.652L366.724 261.248C366.995 261.518 367.401 261.652 367.942 261.652C368.618 261.652 368.889 261.383 368.889 261.113C368.889 260.304 366.724 260.978 366.724 259.63C366.724 259.091 367.13 258.687 368.077 258.687C368.483 258.687 369.024 258.822 369.295 258.956L369.159 259.361C368.889 259.226 368.483 259.091 368.212 259.091C367.671 259.091 367.401 259.361 367.401 259.63C367.401 260.574 369.565 259.9 369.565 261.113C369.565 261.652 369.024 262.057 368.212 262.057C367.401 262.057 366.86 261.922 366.589 261.652Z" fill="black"/>
<path d="M372.947 260.439H370.241C370.241 261.113 370.782 261.518 371.594 261.518C372 261.518 372.406 261.383 372.541 261.113L372.811 261.383C372.541 261.787 372 261.922 371.594 261.922C370.512 261.922 369.835 261.248 369.835 260.304C369.835 259.361 370.512 258.687 371.459 258.687C372.406 258.687 373.082 259.361 373.082 260.304C373.082 260.439 372.947 260.439 372.947 260.439ZM370.241 260.17H372.541C372.541 259.496 372 259.091 371.323 259.091C370.782 259.091 370.377 259.496 370.241 260.17Z" fill="black"/>
<path d="M376.87 257.339V261.922H376.464V261.248C376.193 261.652 375.788 261.922 375.247 261.922C374.3 261.922 373.623 261.248 373.623 260.304C373.623 259.361 374.3 258.687 375.247 258.687C375.788 258.687 376.193 258.956 376.464 259.361V257.339H376.87ZM376.464 260.304C376.464 259.495 375.923 258.956 375.247 258.956C374.57 258.956 374.029 259.495 374.029 260.304C374.029 261.113 374.57 261.652 375.247 261.652C375.923 261.652 376.464 261.113 376.464 260.304Z" fill="black"/>
<path d="M382.822 257.339V261.922H382.416V261.248C382.145 261.652 381.74 261.922 381.198 261.922C380.252 261.922 379.575 261.248 379.575 260.304C379.575 259.361 380.252 258.687 381.198 258.687C381.74 258.687 382.145 258.956 382.416 259.361V257.339H382.822ZM382.416 260.304C382.416 259.495 381.875 258.956 381.198 258.956C380.522 258.956 379.981 259.495 379.981 260.304C379.981 261.113 380.522 261.652 381.198 261.652C381.875 261.652 382.416 261.113 382.416 260.304Z" fill="black"/>
<path d="M383.904 257.608C383.904 257.473 384.039 257.339 384.174 257.339C384.31 257.339 384.445 257.473 384.445 257.608C384.445 257.743 384.31 257.878 384.174 257.878C384.174 258.013 383.904 257.878 383.904 257.608ZM384.039 258.687H384.445V261.922H384.039V258.687Z" fill="black"/>
<path d="M388.233 259.9V261.922H387.827V261.517C387.692 261.922 387.286 262.057 386.745 262.057C385.933 262.057 385.527 261.652 385.527 261.113C385.527 260.574 385.798 260.169 386.745 260.169H387.827V260.035C387.827 259.495 387.556 259.226 386.88 259.226C386.474 259.226 386.068 259.361 385.798 259.63L385.663 259.361C385.933 259.091 386.474 258.956 387.015 258.956C387.827 258.687 388.233 259.091 388.233 259.9ZM387.827 260.978V260.439H386.745C386.068 260.439 385.933 260.709 385.933 260.978C385.933 261.383 386.204 261.652 386.745 261.652C387.286 261.652 387.692 261.383 387.827 260.978Z" fill="black"/>
<path d="M394.861 260.035V261.922H394.455V260.17C394.455 259.496 394.049 259.091 393.508 259.091C392.832 259.091 392.426 259.496 392.426 260.304V262.057H392.02V260.17C392.02 259.496 391.615 259.091 391.073 259.091C390.397 259.091 389.991 259.496 389.991 260.304V262.057H389.585V258.822H389.991V259.361C390.262 258.956 390.668 258.687 391.209 258.687C391.75 258.687 392.156 258.956 392.426 259.361C392.697 258.956 393.103 258.687 393.779 258.687C394.32 258.687 394.861 259.091 394.861 260.035Z" fill="black"/>
<path d="M398.649 258.956L396.484 259.765L398.649 260.574V261.113L395.808 260.035V259.495L398.649 258.417V258.956Z" fill="black"/>
<path d="M401.084 256.8H401.625L399.596 262.731H399.054L401.084 256.8Z" fill="black"/>
<path d="M405.818 257.608V261.922H405.142V260.035H402.572V261.922H401.895V257.608H402.572V259.495H405.142V257.608H405.818Z" fill="black"/>
<path d="M408.118 257.608V261.922H407.442V258.147H406.495V257.608H408.118Z" fill="black"/>
<path d="M412.041 259.495V260.035L409.2 261.113V260.574L411.5 259.765L409.2 258.956V258.417L412.041 259.495Z" fill="black"/>
<path d="M322.896 273.919L320.732 274.728L322.896 275.537V276.076L320.055 274.998V274.459L322.896 273.38V273.919Z" fill="black"/>
<path d="M327.495 274.189C327.495 275.133 326.819 275.672 325.601 275.672H324.654V277.02H323.978V272.706H325.737C326.819 272.571 327.495 273.245 327.495 274.189ZM326.819 274.189C326.819 273.515 326.413 273.245 325.601 273.245H324.654V275.267H325.737C326.413 275.133 326.819 274.728 326.819 274.189Z" fill="black"/>
<path d="M331.012 274.594V275.133L328.172 276.211V275.672L330.471 274.863L328.172 274.054V273.515L331.012 274.594Z" fill="black"/>
<path d="M336.423 273.919L334.259 274.728L336.423 275.537V276.076L333.583 274.998V274.459L336.423 273.38V273.919Z" fill="black"/>
<path d="M337.505 272.571H338.182V276.885H337.505V272.571Z" fill="black"/>
<path d="M343.457 277.02V273.784L341.834 276.481H341.564L339.94 273.784V277.02H339.399V272.706H339.94L341.834 275.807L343.593 272.706H344.134V277.02H343.457Z" fill="black"/>
<path d="M348.462 274.728H349.003V276.481C348.598 276.885 347.921 277.02 347.38 277.02C346.027 277.02 345.081 276.076 345.081 274.728C345.081 273.38 346.027 272.437 347.38 272.437C348.057 272.437 348.733 272.706 349.003 273.111L348.598 273.515C348.192 273.111 347.786 272.976 347.38 272.976C346.298 272.976 345.622 273.65 345.622 274.593C345.622 275.537 346.298 276.211 347.38 276.211C347.786 276.211 348.057 276.076 348.462 275.941V274.728Z" fill="black"/>
<path d="M351.574 276.481L351.844 275.941C352.115 276.211 352.791 276.481 353.332 276.481C354.144 276.481 354.414 276.211 354.414 275.807C354.414 274.728 351.709 275.402 351.709 273.785C351.709 273.111 352.25 272.571 353.332 272.571C353.873 272.571 354.414 272.706 354.685 272.976L354.414 273.515C354.009 273.245 353.603 273.111 353.197 273.111C352.385 273.111 352.115 273.38 352.115 273.785C352.115 274.863 354.82 274.189 354.82 275.807C354.82 276.481 354.279 277.02 353.062 277.02C352.521 277.02 351.844 276.885 351.574 276.481Z" fill="black"/>
<path d="M358.743 277.02L357.796 275.672C357.661 275.672 357.661 275.672 357.526 275.672H356.443V277.02H355.767V272.706H357.526C358.608 272.706 359.419 273.245 359.419 274.189C359.419 274.863 359.014 275.402 358.473 275.537L359.555 277.02H358.743ZM358.743 274.189C358.743 273.515 358.337 273.245 357.526 273.245H356.443V275.267H357.526C358.337 275.132 358.743 274.728 358.743 274.189Z" fill="black"/>
<path d="M359.961 274.863C359.961 273.515 360.908 272.571 362.26 272.571C362.937 272.571 363.478 272.841 363.884 273.245L363.478 273.65C363.072 273.245 362.666 273.111 362.26 273.111C361.313 273.111 360.502 273.785 360.502 274.728C360.502 275.672 361.178 276.346 362.26 276.346C362.801 276.346 363.207 276.211 363.478 275.807L363.884 276.211C363.478 276.615 362.937 276.885 362.26 276.885C361.043 277.02 359.961 276.076 359.961 274.863Z" fill="black"/>
<path d="M364.695 273.785H367.536V274.324H364.695V273.785ZM364.695 275.268H367.536V275.807H364.695V275.268Z" fill="black"/>
<path d="M369.971 272.571H370.512V274.324H370.106L369.971 272.571ZM371.053 272.571H371.594V274.324H371.188L371.053 272.571Z" fill="black"/>
<path d="M372.676 272.571H373.353V276.346H375.788V276.885H372.812V272.571H372.676Z" fill="black"/>
<path d="M375.923 275.402C375.923 274.459 376.599 273.65 377.681 273.65C378.628 273.65 379.44 274.324 379.44 275.402C379.44 276.346 378.764 277.155 377.681 277.155C376.735 277.02 375.923 276.346 375.923 275.402ZM378.764 275.402C378.764 274.728 378.223 274.189 377.681 274.189C377.005 274.189 376.599 274.594 376.599 275.402C376.599 276.076 377.14 276.616 377.681 276.616C378.358 276.481 378.764 276.076 378.764 275.402Z" fill="black"/>
<path d="M382.01 273.65V274.189H381.875C381.198 274.189 380.793 274.594 380.793 275.268V276.885H380.251V273.65H380.793V274.189C381.063 273.785 381.469 273.65 382.01 273.65Z" fill="black"/>
<path d="M385.798 275.537H383.092C383.228 276.076 383.633 276.481 384.31 276.481C384.716 276.481 384.986 276.346 385.257 276.076L385.527 276.481C385.257 276.885 384.716 277.02 384.175 277.02C383.092 277.02 382.416 276.346 382.416 275.268C382.416 274.324 383.092 273.515 384.039 273.515C384.986 273.515 385.663 274.189 385.663 275.268C385.798 275.402 385.798 275.537 385.798 275.537ZM383.092 275.133H385.257C385.257 274.594 384.716 274.189 384.175 274.189C383.498 274.189 383.092 274.594 383.092 275.133Z" fill="black"/>
<path d="M392.155 275.133V277.02H391.614V275.133C391.614 274.459 391.344 274.189 390.803 274.189C390.262 274.189 389.856 274.594 389.856 275.268V277.02H389.315V275.133C389.315 274.459 389.044 274.189 388.503 274.189C387.962 274.189 387.556 274.594 387.556 275.268V277.02H387.015V273.65H387.556V274.189C387.827 273.785 388.233 273.65 388.638 273.65C389.179 273.65 389.585 273.785 389.856 274.324C390.126 273.92 390.532 273.65 391.073 273.65C391.614 273.65 392.155 274.054 392.155 275.133Z" fill="black"/>
<path d="M394.861 272.706C394.861 272.437 394.996 272.302 395.267 272.302C395.537 272.302 395.673 272.437 395.673 272.706C395.673 272.976 395.537 273.111 395.267 273.111C394.996 272.976 394.861 272.841 394.861 272.706ZM394.861 273.65H395.402V277.02H394.861V273.65Z" fill="black"/>
<path d="M400.137 275.402C400.137 276.481 399.46 277.155 398.513 277.155C398.108 277.155 397.567 277.02 397.296 276.616V278.368H396.755V273.65H397.296V274.189C397.567 273.785 397.972 273.65 398.513 273.65C399.325 273.65 400.137 274.324 400.137 275.402ZM399.46 275.402C399.46 274.728 398.919 274.189 398.378 274.189C397.702 274.189 397.296 274.594 397.296 275.402C397.296 276.076 397.837 276.616 398.378 276.616C399.055 276.481 399.46 276.076 399.46 275.402Z" fill="black"/>
<path d="M400.542 276.616L400.813 276.076C401.084 276.211 401.489 276.481 402.03 276.481C402.572 276.481 402.842 276.346 402.842 276.076C402.842 275.268 400.678 275.942 400.678 274.594C400.678 274.054 401.219 273.65 402.03 273.65C402.436 273.65 402.977 273.785 403.248 273.92L402.977 274.459C402.707 274.324 402.301 274.189 402.03 274.189C401.489 274.189 401.219 274.324 401.219 274.594C401.219 275.402 403.383 274.728 403.383 276.076C403.383 276.616 402.842 277.02 401.895 277.02C401.354 277.02 400.813 276.885 400.542 276.616Z" fill="black"/>
<path d="M407.171 273.65V277.02H406.63V276.481C406.359 276.885 405.953 277.02 405.548 277.02C404.736 277.02 404.06 276.616 404.06 275.537V273.65H404.601V275.537C404.601 276.211 404.871 276.481 405.548 276.481C406.224 276.481 406.63 276.076 406.63 275.402V273.65H407.171Z" fill="black"/>
<path d="M413.799 275.133V277.02H413.258V275.133C413.258 274.459 412.988 274.189 412.447 274.189C411.905 274.189 411.5 274.594 411.5 275.268V277.02H410.959V275.133C410.959 274.459 410.688 274.189 410.147 274.189C409.606 274.189 409.2 274.594 409.2 275.268V277.02H408.659V273.65H409.2V274.189C409.471 273.785 409.876 273.65 410.282 273.65C410.823 273.65 411.229 273.785 411.5 274.324C411.77 273.92 412.176 273.65 412.717 273.65C413.258 273.65 413.799 274.054 413.799 275.133Z" fill="black"/>
<path d="M414.746 272.571H415.287V274.324H414.881L414.746 272.571ZM415.964 272.571H416.505V274.324H416.099L415.964 272.571Z" fill="black"/>
<path d="M420.022 274.594V275.133L417.181 276.211V275.672L419.481 274.863L417.181 274.054V273.515L420.022 274.594Z" fill="black"/>
<path d="M423.674 273.919L421.51 274.728L423.674 275.537V276.076L420.833 274.998V274.459L423.674 273.38V273.919Z" fill="black"/>
<path d="M425.974 271.762H426.515L424.486 277.694H423.945L425.974 271.762Z" fill="black"/>
<path d="M430.573 274.189C430.573 275.133 429.897 275.672 428.679 275.672H427.597V277.02H426.921V272.706H428.679C429.897 272.571 430.573 273.245 430.573 274.189ZM429.897 274.189C429.897 273.515 429.491 273.245 428.679 273.245H427.597V275.267H428.679C429.491 275.133 429.897 274.728 429.897 274.189Z" fill="black"/>
<path d="M434.09 274.594V275.133L431.249 276.211V275.672L433.549 274.863L431.249 274.054V273.515L434.09 274.594Z" fill="black"/>
<path d="M322.896 288.883L320.596 289.826L322.761 290.635V291.174L319.92 290.096V289.557L322.761 288.478V288.883H322.896Z" fill="black"/>
<path d="M325.196 286.726H325.737L323.708 292.657H323.167L325.196 286.726Z" fill="black"/>
<path d="M329.93 290.77C329.93 291.579 329.389 291.983 328.307 291.983H326.278V287.669H328.307C329.254 287.669 329.93 288.074 329.93 288.748C329.93 289.287 329.66 289.557 329.389 289.691C329.66 289.826 329.93 290.231 329.93 290.77ZM326.819 288.074V289.422H328.172C328.848 289.422 329.119 289.152 329.119 288.748C329.119 288.343 328.713 288.074 328.172 288.074H326.819ZM329.254 290.77C329.254 290.231 328.848 290.096 328.172 290.096H326.684V291.579H328.172C328.983 291.444 329.254 291.309 329.254 290.77Z" fill="black"/>
<path d="M330.606 289.826C330.606 288.478 331.553 287.534 332.906 287.534C334.259 287.534 335.206 288.478 335.206 289.826C335.206 291.174 334.259 292.118 332.906 292.118C331.553 291.983 330.606 291.039 330.606 289.826ZM334.529 289.826C334.529 288.882 333.853 288.208 332.771 288.208C331.824 288.208 331.012 288.882 331.012 289.826C331.012 290.77 331.689 291.444 332.771 291.444C333.853 291.444 334.529 290.77 334.529 289.826Z" fill="black"/>
<path d="M336.153 287.669H338.046C339.399 287.669 340.481 288.613 340.481 289.826C340.481 291.04 339.534 291.983 338.046 291.983H336.153V287.669ZM338.046 291.444C339.129 291.444 339.805 290.77 339.805 289.826C339.805 288.883 339.129 288.209 338.046 288.209H336.829V291.444H338.046Z" fill="black"/>
<path d="M342.916 290.5V291.983H342.24V290.5L340.481 287.669H341.158L342.511 289.961L343.863 287.669H344.54L342.916 290.5Z" fill="black"/>
<path d="M347.786 289.557V290.096L344.945 291.174V290.635L347.245 289.826L344.945 289.017V288.478L347.786 289.557Z" fill="black"/>
<path d="M491.716 171.739C491.716 171.874 448.294 172.143 394.726 172.143C341.158 172.143 297.735 172.008 297.735 171.739C297.735 171.604 341.158 171.334 394.726 171.334C448.294 171.469 491.716 171.604 491.716 171.739Z" fill="#263238"/>
<path d="M303.552 164.864C303.552 165.538 303.011 166.077 302.335 166.077C301.658 166.077 301.117 165.538 301.117 164.864C301.117 164.19 301.658 163.651 302.335 163.651C303.011 163.651 303.552 164.19 303.552 164.864Z" fill="#263238"/>
<path d="M307.069 166.077C307.742 166.077 308.287 165.534 308.287 164.864C308.287 164.194 307.742 163.651 307.069 163.651C306.397 163.651 305.852 164.194 305.852 164.864C305.852 165.534 306.397 166.077 307.069 166.077Z" fill="#263238"/>
<path d="M313.157 164.864C313.157 165.538 312.616 166.077 311.939 166.077C311.263 166.077 310.722 165.538 310.722 164.864C310.722 164.19 311.263 163.651 311.939 163.651C312.616 163.651 313.157 164.19 313.157 164.864Z" fill="#263238"/>
<path d="M310.045 318C309.91 318 309.639 285.243 309.639 244.802C309.639 204.361 309.774 171.604 310.045 171.604C310.18 171.604 310.451 204.361 310.451 244.802C310.451 285.108 310.18 318 310.045 318Z" fill="#E0E0E0"/>
<path d="M111.634 29.5219H45.4175C41.5515 29.5219 38.4175 32.6559 38.4175 36.5218V79.4087C38.4175 83.2747 41.5515 86.4087 45.4175 86.4087H111.634C115.5 86.4087 118.634 83.2747 118.634 79.4087V36.5219C118.634 32.6559 115.5 29.5219 111.634 29.5219Z" fill="#FB6D3A"/>
<path d="M119.311 37.8796C119.311 38.0144 101.184 38.284 78.864 38.284C56.544 38.284 38.4175 38.1492 38.4175 37.8796C38.4175 37.7448 56.544 37.4752 78.864 37.4752C101.184 37.61 119.311 37.7448 119.311 37.8796Z" fill="white"/>
<path d="M45.046 33.8356C45.046 34.3748 44.5049 34.7792 43.9638 34.7792C43.4227 34.7792 42.8816 34.3748 42.8816 33.8356C42.8816 33.2964 43.4227 32.892 43.9638 32.892C44.5049 32.892 45.046 33.2964 45.046 33.8356Z" fill="white"/>
<path d="M48.9688 33.8356C48.9688 34.3748 48.4277 34.7792 47.8866 34.7792C47.3455 34.7792 46.8044 34.3748 46.8044 33.8356C46.8044 33.2964 47.3455 32.892 47.8866 32.892C48.4277 32.892 48.9688 33.2964 48.9688 33.8356Z" fill="white"/>
<path d="M51.8095 34.7792C52.4071 34.7792 52.8917 34.3567 52.8917 33.8356C52.8917 33.3144 52.4071 32.892 51.8095 32.892C51.2118 32.892 50.7273 33.3144 50.7273 33.8356C50.7273 34.3567 51.2118 34.7792 51.8095 34.7792Z" fill="white"/>
<path d="M59.2471 72.3032L61.2713 69.987C62.5727 71.8689 64.3078 72.8822 66.332 72.8822C69.0793 72.8822 70.5252 71.1451 70.5252 67.9603V54.3525H61.7051V51.3125H73.8508V67.8155C73.8508 73.1718 71.2481 75.9223 66.1874 75.9223C63.4402 75.7775 60.8376 74.6194 59.2471 72.3032Z" fill="white"/>
<path d="M78.7668 72.7374L80.0682 69.9869C81.8033 71.5793 84.9843 72.7374 88.0207 72.7374C92.2138 72.7374 93.9489 71.145 93.9489 68.9736C93.9489 63.0383 79.2006 66.8021 79.2006 57.8268C79.2006 54.063 82.0924 50.8782 88.4545 50.8782C91.3463 50.8782 94.2381 51.602 96.2624 53.0496L95.1057 55.8001C92.9368 54.4972 90.6233 53.7734 88.4545 53.7734C84.2613 53.7734 82.5262 55.5106 82.5262 57.682C82.5262 63.6173 97.2745 59.8535 97.2745 68.8288C97.2745 72.5927 94.2381 75.7775 87.8761 75.7775C84.2613 75.7775 80.6465 74.6194 78.7668 72.7374Z" fill="white"/>
<path d="M539.772 247.229H481.266C477.4 247.229 474.266 250.363 474.266 254.229V291.723C474.266 295.589 477.4 298.723 481.266 298.723H539.772C543.638 298.723 546.772 295.589 546.772 291.723V254.229C546.772 250.363 543.638 247.229 539.772 247.229Z" fill="#FB6D3A"/>
<path d="M498.751 271.089V281.334H496.316V277.155H491.716V281.334H489.281V271.089H491.716V275.133H496.316V271.089H498.751Z" fill="white"/>
<path d="M503.35 273.111H500.103V271.223H509.031V273.111H505.785V281.334H503.35V273.111Z" fill="white"/>
<path d="M522.747 271.089H525.182V279.312H530.322V281.199H522.747V271.089Z" fill="white"/>
<path d="M519.447 281.334V275.267L516.471 280.255H515.389L512.413 275.402V281.334H510.249V271.089H512.278L516.066 277.424L519.853 271.089H521.747V281.334H519.447Z" fill="white"/>
<path d="M547.313 254.912C547.313 255.047 530.945 255.182 510.79 255.182C490.634 255.182 474.266 255.047 474.266 254.912C474.266 254.777 490.634 254.643 510.79 254.643C530.945 254.643 547.313 254.777 547.313 254.912Z" fill="white"/>
<path d="M480.218 251.138C480.218 251.542 479.812 251.946 479.271 251.946C478.73 251.946 478.324 251.542 478.324 251.138C478.324 250.733 478.73 250.329 479.271 250.329C479.812 250.194 480.218 250.598 480.218 251.138Z" fill="white"/>
<path d="M483.735 251.138C483.735 251.542 483.329 251.946 482.788 251.946C482.247 251.946 481.841 251.542 481.841 251.138C481.841 250.733 482.247 250.329 482.788 250.329C483.329 250.329 483.735 250.598 483.735 251.138Z" fill="white"/>
<path d="M487.387 251.138C487.387 251.542 486.982 251.946 486.441 251.946C485.899 251.946 485.494 251.542 485.494 251.138C485.494 250.733 485.899 250.329 486.441 250.329C486.846 250.194 487.387 250.598 487.387 251.138Z" fill="white"/>
<path d="M49.4327 246.42H4C1.79086 246.42 0 248.211 0 250.42V280.299C0 282.508 1.79086 284.299 4 284.299H49.4327C51.6419 284.299 53.4327 282.508 53.4327 280.299V250.42C53.4327 248.211 51.6419 246.42 49.4327 246.42Z" fill="#FB6D3A"/>
<path d="M53.8385 252.082C53.8385 252.216 41.7993 252.216 26.9193 252.216C12.0393 252.216 0 252.082 0 252.082C0 252.082 12.0393 251.947 26.9193 251.947C41.7993 251.947 53.8385 251.947 53.8385 252.082Z" fill="white"/>
<path d="M4.3288 249.385C4.3288 249.79 4.05826 250.059 3.65244 250.059C3.24662 250.059 2.97607 249.79 2.97607 249.385C2.97607 248.981 3.24662 248.711 3.65244 248.711C4.05826 248.711 4.3288 248.981 4.3288 249.385Z" fill="white"/>
<path d="M7.03437 249.385C7.03437 249.79 6.76382 250.059 6.358 250.059C5.95219 250.059 5.68164 249.79 5.68164 249.385C5.68164 248.981 5.95219 248.711 6.358 248.711C6.62855 248.711 7.03437 248.981 7.03437 249.385Z" fill="white"/>
<path d="M9.60444 249.385C9.60444 249.79 9.33389 250.059 8.92807 250.059C8.52225 250.059 8.25171 249.79 8.25171 249.385C8.25171 248.981 8.52225 248.711 8.92807 248.711C9.33389 248.711 9.60444 248.981 9.60444 249.385Z" fill="white"/>
<path d="M318.297 100.293C318.297 94.4968 322.761 90.1831 328.713 90.1831C331.554 90.1831 334.124 91.1267 335.882 92.8792L334.935 93.8228C333.177 92.2051 331.148 91.3963 328.848 91.3963C323.708 91.3963 319.92 95.1708 319.92 100.159C319.92 105.146 323.843 108.921 328.848 108.921C331.148 108.921 333.312 108.247 334.935 106.494L335.882 107.438C334.124 109.325 331.554 110.269 328.713 110.269C322.761 110.404 318.297 106.09 318.297 100.293Z" fill="#FB6D3A"/>
<path d="M338.588 107.708L339.264 106.629C340.617 108.112 343.187 109.19 345.893 109.19C349.951 109.19 351.709 107.438 351.709 105.281C351.709 99.3498 339.264 102.855 339.264 95.5753C339.264 92.7444 341.429 90.318 346.298 90.318C348.463 90.318 350.762 90.992 352.386 92.0704L351.845 93.2837C350.221 92.2052 348.192 91.666 346.298 91.666C342.376 91.666 340.617 93.4185 340.617 95.7101C340.617 101.641 353.062 98.1366 353.062 105.416C353.062 108.247 350.762 110.673 345.893 110.673C342.781 110.404 339.941 109.325 338.588 107.708Z" fill="#FB6D3A"/>
<path d="M355.903 107.708L356.579 106.629C357.932 108.112 360.502 109.19 363.207 109.19C367.266 109.19 369.024 107.438 369.024 105.281C369.024 99.3498 356.579 102.855 356.579 95.5753C356.579 92.7444 358.743 90.318 363.613 90.318C365.777 90.318 368.077 90.992 369.7 92.0704L369.159 93.2837C367.536 92.2052 365.507 91.666 363.613 91.666C359.69 91.666 357.932 93.4185 357.932 95.7101C357.932 101.641 370.377 98.1366 370.377 105.416C370.377 108.247 368.077 110.673 363.207 110.673C360.231 110.404 357.391 109.325 355.903 107.708Z" fill="#FB6D3A"/>
<path d="M387.421 126.176C387.421 126.176 387.421 125.771 387.421 125.097C387.421 124.423 387.421 123.345 387.421 121.997C387.421 119.301 387.421 115.391 387.286 110.404C387.286 100.428 387.151 86.1391 387.151 68.6147L387.421 68.8843C363.072 68.8843 331.959 68.8843 298.276 69.0191L298.682 68.6147C298.682 88.9699 298.682 108.382 298.682 126.041L298.412 125.771C324.519 125.771 346.839 125.906 362.531 125.906C370.377 125.906 376.599 125.906 380.928 126.041C383.092 126.041 384.716 126.041 385.798 126.041C386.339 126.041 386.745 126.041 387.015 126.041C387.286 126.176 387.421 126.176 387.421 126.176C387.421 126.176 387.286 126.176 387.015 126.176C386.745 126.176 386.339 126.176 385.798 126.176C384.716 126.176 383.092 126.176 380.928 126.176C376.599 126.176 370.377 126.176 362.666 126.31C346.839 126.31 324.519 126.445 298.276 126.445H298.006V126.176C298.006 108.516 298.006 89.2395 298.006 68.7495V68.3451H298.412C332.095 68.3451 363.072 68.3451 387.556 68.4799H387.827V68.7495C387.827 86.2739 387.692 100.698 387.692 110.673C387.692 115.661 387.692 119.435 387.556 122.131C387.556 123.479 387.556 124.423 387.556 125.097C387.421 125.906 387.421 126.176 387.421 126.176Z" fill="#FB6D3A"/>
<path d="M387.421 77.3768C387.421 77.5116 367.401 77.7812 342.781 77.7812C318.161 77.7812 298.141 77.6464 298.141 77.3768C298.141 77.242 318.161 76.9724 342.781 76.9724C367.536 76.9724 387.421 77.1072 387.421 77.3768Z" fill="#FB6D3A"/>
<path d="M304.905 73.198C304.905 73.7372 304.364 74.1416 303.823 74.1416C303.282 74.1416 302.74 73.7372 302.74 73.198C302.74 72.6588 303.282 72.2544 303.823 72.2544C304.499 72.2544 304.905 72.6588 304.905 73.198Z" fill="#FB6D3A"/>
<path d="M308.828 73.198C308.828 73.7372 308.287 74.1416 307.745 74.1416C307.204 74.1416 306.663 73.7372 306.663 73.198C306.663 72.6588 307.204 72.2544 307.745 72.2544C308.422 72.2544 308.828 72.6588 308.828 73.198Z" fill="#FB6D3A"/>
<path d="M312.886 73.198C312.886 73.7372 312.345 74.1416 311.804 74.1416C311.263 74.1416 310.722 73.7372 310.722 73.198C310.722 72.6588 311.263 72.2544 311.804 72.2544C312.345 72.2544 312.886 72.6588 312.886 73.198Z" fill="#FB6D3A"/>
<g filter="url(#filter0_d)">
<path d="M192.72 121.573C194.141 120.152 196.445 120.152 197.866 121.573L203.012 126.72C204.433 128.141 204.433 130.445 203.012 131.866L197.866 137.012C196.445 138.433 194.141 138.433 192.72 137.012L187.573 131.866C186.152 130.445 186.152 128.141 187.573 126.72L192.72 121.573Z" fill="white"/>
</g>
<defs>
<filter id="filter0_d" x="169" y="112" width="40.5854" height="40.5854" filterUnits="userSpaceOnUse" color-interpolation-filters="sRGB">
<feFlood flood-opacity="0" result="BackgroundImageFix"/>
<feColorMatrix in="SourceAlpha" type="matrix" values="0 0 0 0 0 0 0 0 0 0 0 0 0 0 0 0 0 0 127 0"/>
<feOffset dx="-6" dy="3"/>
<feGaussianBlur stdDeviation="5"/>
<feColorMatrix type="matrix" values="0 0 0 0 0.929412 0 0 0 0 0.631373 0 0 0 0 0.266667 0 0 0 0.5 0"/>
<feBlend mode="multiply" in2="BackgroundImageFix" result="effect1_dropShadow"/>
<feBlend mode="normal" in="SourceGraphic" in2="effect1_dropShadow" result="shape"/>
</filter>
</defs>
</svg>
