<svg width="22" height="22" viewBox="0 0 22 22" fill="none" xmlns="http://www.w3.org/2000/svg">
<g clip-path="url(#clip0)">
<path d="M21.8337 10.5678C21.7841 10.5129 20.5958 9.20739 18.6785 7.89057C16.1148 6.12988 13.4596 5.19922 11 5.19922C8.54039 5.19922 5.88522 6.12988 3.32152 7.89057C1.40417 9.20739 0.215952 10.5129 0.166323 10.5678C-0.0554818 10.8133 -0.0554818 11.1868 0.166323 11.4321C0.215952 11.4871 1.40421 12.7926 3.32157 14.1094C5.88522 15.8701 8.54043 16.8008 11 16.8008C13.4595 16.8008 16.1147 15.8701 18.6784 14.1094C20.5958 12.7926 21.784 11.4871 21.8337 11.4322C22.0554 11.1868 22.0554 10.8133 21.8337 10.5678ZM6.25127 14.3275C4.51516 13.4943 2.85944 12.2732 1.54837 11.0003C2.30785 10.2642 4.02699 8.74312 6.25221 7.67113C5.58912 8.61404 5.19922 9.76229 5.19922 11C5.19918 12.2371 5.58869 13.3849 6.25127 14.3275ZM11 15.5117C8.51431 15.5117 6.48824 13.4896 6.48824 11C6.48824 8.51224 8.5122 6.48828 11 6.48828C13.4859 6.48828 15.5117 8.51065 15.5117 11C15.5117 13.4878 13.4878 15.5117 11 15.5117ZM15.7478 14.3289C16.4109 13.386 16.8008 12.2377 16.8008 11C16.8008 9.7629 16.4113 8.61515 15.7488 7.6725C17.4849 8.50576 19.1406 9.72684 20.4517 10.9998C19.6922 11.7359 17.973 13.2569 15.7478 14.3289Z" fill="white"/>
<circle cx="11" cy="11" r="1" fill="white"/>
</g>
<defs>
<clipPath id="clip0">
<rect width="22" height="22" fill="white"/>
</clipPath>
</defs>
</svg>
