<svg width="16" height="16" viewBox="0 0 16 16" fill="none" xmlns="http://www.w3.org/2000/svg">
<path d="M11.6689 0H4.33105C1.94287 0 0 1.94287 0 4.33105V11.669C0 14.0571 1.94287 16 4.33105 16H11.669C14.0571 16 16 14.0571 16 11.669V4.33105C16 1.94287 14.0571 0 11.6689 0ZM7.99998 12.3749C5.58764 12.3749 3.62512 10.4123 3.62512 7.99998C3.62512 5.58764 5.58764 3.62512 7.99998 3.62512C10.4123 3.62512 12.3749 5.58764 12.3749 7.99998C12.3749 10.4123 10.4123 12.3749 7.99998 12.3749ZM12.4795 4.65685C11.7666 4.65685 11.1867 4.07702 11.1867 3.36413C11.1867 2.65124 11.7666 2.07129 12.4795 2.07129C13.1924 2.07129 13.7723 2.65124 13.7723 3.36413C13.7723 4.07702 13.1924 4.65685 12.4795 4.65685Z" fill="white"/>
<path d="M7.99998 5.33325C6.52964 5.33325 5.33331 6.52949 5.33331 7.99992C5.33331 9.47026 6.52964 10.6666 7.99998 10.6666C9.47041 10.6666 10.6666 9.47026 10.6666 7.99992C10.6666 6.52949 9.47041 5.33325 7.99998 5.33325Z" fill="white"/>
</svg>
